<?xml version="1.0" encoding="UTF-8" standalone="no"?>
<svg
   xmlns:dc="http://purl.org/dc/elements/1.1/"
   xmlns:cc="http://creativecommons.org/ns#"
   xmlns:rdf="http://www.w3.org/1999/02/22-rdf-syntax-ns#"
   xmlns:svg="http://www.w3.org/2000/svg"
   xmlns="http://www.w3.org/2000/svg"
   version="1.1"
   id="svg2"
   xml:space="preserve"
   width="691.33331"
   height="267.23999"
   viewBox="0 0 691.33331 267.23999"><metadata
     id="metadata8"><rdf:RDF><cc:Work
         rdf:about=""><dc:format>image/svg+xml</dc:format><dc:type
           rdf:resource="http://purl.org/dc/dcmitype/StillImage" /></cc:Work></rdf:RDF></metadata><defs
     id="defs6" /><g
     id="g10"
     transform="matrix(1.3333333,0,0,-1.3333333,0,267.24)"><g
       id="g12"
       transform="scale(0.1)"><path
         d="m 670.227,328.059 c 0,64.765 -52.5,117.269 -117.266,117.269 -64.766,0 -117.27,-52.504 -117.27,-117.269 0,-64.766 52.504,-117.266 117.27,-117.266 64.766,0 117.266,52.5 117.266,117.266 z"
         style="fill:none;stroke:#000000;stroke-width:7.9701;stroke-linecap:butt;stroke-linejoin:miter;stroke-miterlimit:10;stroke-dasharray:none;stroke-opacity:1"
         id="path14" /><path
         d="m 551.906,342.813 c 0,0.406 -0.297,1 -1,1 -1.093,0 -5.062,-3.985 -6.75,-6.86 -2.187,5.36 -6.062,6.953 -9.25,6.953 -11.718,0 -23.937,-14.703 -23.937,-29.109 0,-9.734 5.859,-15.891 13.125,-15.891 4.265,0 8.14,2.391 11.719,5.969 -0.907,-3.484 -4.172,-16.891 -4.469,-17.781 -0.797,-2.781 -1.594,-3.188 -7.156,-3.281 -1.297,0 -2.282,0 -2.282,-1.985 0,-0.109 0,-1.094 1.282,-1.094 3.187,0 6.656,0.297 9.937,0.297 3.375,0 6.953,-0.297 10.234,-0.297 0.5,0 1.782,0 1.782,1.985 0,1.094 -0.985,1.094 -2.578,1.094 -4.766,0 -4.766,0.687 -4.766,1.578 0,0.703 0.203,1.297 0.391,2.187 z m -27.515,-41.719 c -5.969,0 -6.36,7.64 -6.36,9.344 0,4.765 2.875,15.593 4.563,19.765 3.078,7.344 8.25,11.516 12.312,11.516 6.469,0 7.86,-8.047 7.86,-8.735 0,-0.593 -5.469,-22.359 -5.766,-22.75 -1.484,-2.781 -7.047,-9.14 -12.609,-9.14"
         style="fill:#000000;fill-opacity:1;fill-rule:nonzero;stroke:none"
         id="path16" /><path
         d="m 578.547,380.703 c 0,1.906 -0.141,1.969 -2.109,1.969 -4.5,-4.422 -10.891,-4.484 -13.782,-4.484 v -2.532 c 1.688,0 6.328,0 10.203,1.969 v -35.859 c 0,-2.328 0,-3.235 -7.031,-3.235 h -2.672 V 336 c 1.266,0.063 9.907,0.281 12.516,0.281 2.172,0 11.031,-0.218 12.578,-0.281 v 2.531 h -2.672 c -7.031,0 -7.031,0.907 -7.031,3.235 v 38.937"
         style="fill:#000000;fill-opacity:1;fill-rule:nonzero;stroke:none"
         id="path18" /><path
         d="m 574.547,319.703 c 0,1.906 -0.141,1.969 -2.109,1.969 -4.5,-4.422 -10.891,-4.484 -13.782,-4.484 v -2.532 c 1.688,0 6.328,0 10.203,1.969 v -35.859 c 0,-2.328 0,-3.235 -7.031,-3.235 h -2.672 V 275 c 1.266,0.063 9.907,0.281 12.516,0.281 2.172,0 11.031,-0.218 12.578,-0.281 v 2.531 h -2.672 c -7.031,0 -7.031,0.907 -7.031,3.235 v 38.937"
         style="fill:#000000;fill-opacity:1;fill-rule:nonzero;stroke:none"
         id="path20" /><path
         d="m 1095.43,328.059 c 0,64.765 -52.5,117.269 -117.27,117.269 -64.762,0 -117.265,-52.504 -117.265,-117.269 0,-64.766 52.503,-117.266 117.265,-117.266 64.77,0 117.27,52.5 117.27,117.266 z"
         style="fill:none;stroke:#000000;stroke-width:7.9701;stroke-linecap:butt;stroke-linejoin:miter;stroke-miterlimit:10;stroke-dasharray:none;stroke-opacity:1"
         id="path22" /><path
         d="m 976.906,342.813 c 0,0.406 -0.297,1 -1,1 -1.093,0 -5.062,-3.985 -6.75,-6.86 -2.187,5.36 -6.062,6.953 -9.25,6.953 -11.718,0 -23.937,-14.703 -23.937,-29.109 0,-9.734 5.859,-15.891 13.125,-15.891 4.265,0 8.14,2.391 11.719,5.969 -0.907,-3.484 -4.172,-16.891 -4.469,-17.781 -0.797,-2.781 -1.594,-3.188 -7.156,-3.281 -1.297,0 -2.282,0 -2.282,-1.985 0,-0.109 0,-1.094 1.282,-1.094 3.187,0 6.656,0.297 9.937,0.297 3.375,0 6.953,-0.297 10.234,-0.297 0.5,0 1.782,0 1.782,1.985 0,1.094 -0.985,1.094 -2.578,1.094 -4.766,0 -4.766,0.687 -4.766,1.578 0,0.703 0.203,1.297 0.391,2.187 z m -27.515,-41.719 c -5.969,0 -6.36,7.64 -6.36,9.344 0,4.765 2.875,15.593 4.563,19.765 3.078,7.344 8.25,11.516 12.312,11.516 6.469,0 7.86,-8.047 7.86,-8.735 0,-0.593 -5.469,-22.359 -5.766,-22.75 -1.484,-2.781 -7.047,-9.14 -12.609,-9.14"
         style="fill:#000000;fill-opacity:1;fill-rule:nonzero;stroke:none"
         id="path24" /><path
         d="m 1003.55,380.703 c 0,1.906 -0.14,1.969 -2.11,1.969 -4.502,-4.422 -10.893,-4.484 -13.784,-4.484 v -2.532 c 1.688,0 6.328,0 10.203,1.969 v -35.859 c 0,-2.328 0,-3.235 -7.031,-3.235 h -2.672 V 336 c 1.266,0.063 9.907,0.281 12.514,0.281 2.17,0 11.03,-0.218 12.58,-0.281 v 2.531 h -2.67 c -7.03,0 -7.03,0.907 -7.03,3.235 v 38.937"
         style="fill:#000000;fill-opacity:1;fill-rule:nonzero;stroke:none"
         id="path26" /><path
         d="m 1011.5,287.797 h -2.39 c -0.2,-1.547 -0.91,-5.703 -1.83,-6.406 -0.56,-0.422 -5.97,-0.422 -6.95,-0.422 h -12.939 c 7.375,6.547 9.843,8.515 14.059,11.812 5.21,4.157 10.05,8.516 10.05,15.188 0,8.515 -7.45,13.703 -16.453,13.703 -8.719,0 -14.625,-6.109 -14.625,-12.578 0,-3.578 3.031,-3.938 3.734,-3.938 1.688,0 3.719,1.203 3.719,3.735 0,1.265 -0.484,3.718 -4.141,3.718 2.172,5 6.954,6.547 10.266,6.547 7.03,0 10.69,-5.484 10.69,-11.187 0,-6.11 -4.36,-10.969 -6.612,-13.5 l -16.953,-16.735 c -0.703,-0.625 -0.703,-0.765 -0.703,-2.734 h 28.968 l 2.11,12.797"
         style="fill:#000000;fill-opacity:1;fill-rule:nonzero;stroke:none"
         id="path28" /><path
         d="m 1520.63,328.059 c 0,64.765 -52.5,117.269 -117.27,117.269 -64.76,0 -117.26,-52.504 -117.26,-117.269 0,-64.766 52.5,-117.266 117.26,-117.266 64.77,0 117.27,52.5 117.27,117.266 z"
         style="fill:none;stroke:#000000;stroke-width:7.9701;stroke-linecap:butt;stroke-linejoin:miter;stroke-miterlimit:10;stroke-dasharray:none;stroke-opacity:1"
         id="path30" /><path
         d="m 1401.91,342.813 c 0,0.406 -0.3,1 -1,1 -1.1,0 -5.07,-3.985 -6.75,-6.86 -2.19,5.36 -6.07,6.953 -9.25,6.953 -11.72,0 -23.94,-14.703 -23.94,-29.109 0,-9.734 5.86,-15.891 13.12,-15.891 4.27,0 8.14,2.391 11.72,5.969 -0.9,-3.484 -4.17,-16.891 -4.47,-17.781 -0.79,-2.781 -1.59,-3.188 -7.15,-3.281 -1.3,0 -2.28,0 -2.28,-1.985 0,-0.109 0,-1.094 1.28,-1.094 3.19,0 6.65,0.297 9.94,0.297 3.37,0 6.95,-0.297 10.23,-0.297 0.5,0 1.78,0 1.78,1.985 0,1.094 -0.98,1.094 -2.58,1.094 -4.76,0 -4.76,0.687 -4.76,1.578 0,0.703 0.2,1.297 0.39,2.187 z m -27.52,-41.719 c -5.97,0 -6.36,7.64 -6.36,9.344 0,4.765 2.88,15.593 4.56,19.765 3.08,7.344 8.25,11.516 12.32,11.516 6.47,0 7.86,-8.047 7.86,-8.735 0,-0.593 -5.47,-22.359 -5.77,-22.75 -1.48,-2.781 -7.05,-9.14 -12.61,-9.14"
         style="fill:#000000;fill-opacity:1;fill-rule:nonzero;stroke:none"
         id="path32" /><path
         d="m 1440.5,348.797 h -2.39 c -0.2,-1.547 -0.91,-5.703 -1.83,-6.406 -0.56,-0.422 -5.97,-0.422 -6.95,-0.422 h -12.94 c 7.38,6.547 9.84,8.515 14.06,11.812 5.21,4.157 10.05,8.516 10.05,15.188 0,8.515 -7.45,13.703 -16.45,13.703 -8.72,0 -14.63,-6.109 -14.63,-12.578 0,-3.578 3.03,-3.938 3.74,-3.938 1.68,0 3.72,1.203 3.72,3.735 0,1.265 -0.49,3.718 -4.15,3.718 2.18,5 6.96,6.547 10.27,6.547 7.03,0 10.69,-5.484 10.69,-11.187 0,-6.11 -4.36,-10.969 -6.61,-13.5 l -16.95,-16.735 c -0.71,-0.625 -0.71,-0.765 -0.71,-2.734 h 28.97 l 2.11,12.797"
         style="fill:#000000;fill-opacity:1;fill-rule:nonzero;stroke:none"
         id="path34" /><path
         d="m 1424.55,319.703 c 0,1.906 -0.14,1.969 -2.11,1.969 -4.5,-4.422 -10.89,-4.484 -13.78,-4.484 v -2.532 c 1.68,0 6.32,0 10.2,1.969 v -35.859 c 0,-2.328 0,-3.235 -7.03,-3.235 h -2.67 V 275 c 1.26,0.063 9.9,0.281 12.51,0.281 2.17,0 11.03,-0.218 12.58,-0.281 v 2.531 h -2.67 c -7.03,0 -7.03,0.907 -7.03,3.235 v 38.937"
         style="fill:#000000;fill-opacity:1;fill-rule:nonzero;stroke:none"
         id="path36" /><path
         d="m 1945.83,328.059 c 0,64.765 -52.5,117.269 -117.26,117.269 -64.77,0 -117.27,-52.504 -117.27,-117.269 0,-64.766 52.5,-117.266 117.27,-117.266 64.76,0 117.26,52.5 117.26,117.266 z"
         style="fill:none;stroke:#000000;stroke-width:7.9701;stroke-linecap:butt;stroke-linejoin:miter;stroke-miterlimit:10;stroke-dasharray:none;stroke-opacity:1"
         id="path38" /><path
         d="m 1826.91,342.813 c 0,0.406 -0.3,1 -1,1 -1.1,0 -5.07,-3.985 -6.75,-6.86 -2.19,5.36 -6.07,6.953 -9.25,6.953 -11.72,0 -23.94,-14.703 -23.94,-29.109 0,-9.734 5.86,-15.891 13.12,-15.891 4.27,0 8.14,2.391 11.72,5.969 -0.9,-3.484 -4.17,-16.891 -4.47,-17.781 -0.79,-2.781 -1.59,-3.188 -7.15,-3.281 -1.3,0 -2.28,0 -2.28,-1.985 0,-0.109 0,-1.094 1.28,-1.094 3.19,0 6.65,0.297 9.94,0.297 3.37,0 6.95,-0.297 10.23,-0.297 0.5,0 1.78,0 1.78,1.985 0,1.094 -0.98,1.094 -2.58,1.094 -4.76,0 -4.76,0.687 -4.76,1.578 0,0.703 0.2,1.297 0.39,2.187 z m -27.52,-41.719 c -5.97,0 -6.36,7.64 -6.36,9.344 0,4.765 2.88,15.593 4.56,19.765 3.08,7.344 8.25,11.516 12.32,11.516 6.47,0 7.86,-8.047 7.86,-8.735 0,-0.593 -5.47,-22.359 -5.77,-22.75 -1.48,-2.781 -7.05,-9.14 -12.61,-9.14"
         style="fill:#000000;fill-opacity:1;fill-rule:nonzero;stroke:none"
         id="path40" /><path
         d="m 1865.5,348.797 h -2.39 c -0.2,-1.547 -0.91,-5.703 -1.83,-6.406 -0.56,-0.422 -5.97,-0.422 -6.95,-0.422 h -12.94 c 7.38,6.547 9.84,8.515 14.06,11.812 5.21,4.157 10.05,8.516 10.05,15.188 0,8.515 -7.45,13.703 -16.45,13.703 -8.72,0 -14.63,-6.109 -14.63,-12.578 0,-3.578 3.03,-3.938 3.74,-3.938 1.68,0 3.72,1.203 3.72,3.735 0,1.265 -0.49,3.718 -4.15,3.718 2.18,5 6.96,6.547 10.27,6.547 7.03,0 10.69,-5.484 10.69,-11.187 0,-6.11 -4.36,-10.969 -6.61,-13.5 l -16.95,-16.735 c -0.71,-0.625 -0.71,-0.765 -0.71,-2.734 h 28.97 l 2.11,12.797"
         style="fill:#000000;fill-opacity:1;fill-rule:nonzero;stroke:none"
         id="path42" /><path
         d="m 1862.5,287.797 h -2.39 c -0.2,-1.547 -0.91,-5.703 -1.83,-6.406 -0.56,-0.422 -5.97,-0.422 -6.95,-0.422 h -12.94 c 7.38,6.547 9.84,8.515 14.06,11.812 5.21,4.157 10.05,8.516 10.05,15.188 0,8.515 -7.45,13.703 -16.45,13.703 -8.72,0 -14.63,-6.109 -14.63,-12.578 0,-3.578 3.03,-3.938 3.74,-3.938 1.68,0 3.72,1.203 3.72,3.735 0,1.265 -0.49,3.718 -4.15,3.718 2.18,5 6.96,6.547 10.27,6.547 7.03,0 10.69,-5.484 10.69,-11.187 0,-6.11 -4.36,-10.969 -6.61,-13.5 l -16.95,-16.735 c -0.71,-0.625 -0.71,-0.765 -0.71,-2.734 h 28.97 l 2.11,12.797"
         style="fill:#000000;fill-opacity:1;fill-rule:nonzero;stroke:none"
         id="path44" /><path
         d="m 2371.04,328.059 c 0,64.765 -52.5,117.269 -117.27,117.269 -64.77,0 -117.27,-52.504 -117.27,-117.269 0,-64.766 52.5,-117.266 117.27,-117.266 64.77,0 117.27,52.5 117.27,117.266 z"
         style="fill:none;stroke:#000000;stroke-width:7.9701;stroke-linecap:butt;stroke-linejoin:miter;stroke-miterlimit:10;stroke-dasharray:none;stroke-opacity:1"
         id="path46" /><path
         d="m 2251.91,342.813 c 0,0.406 -0.3,1 -1,1 -1.1,0 -5.07,-3.985 -6.75,-6.86 -2.19,5.36 -6.07,6.953 -9.25,6.953 -11.72,0 -23.94,-14.703 -23.94,-29.109 0,-9.734 5.86,-15.891 13.12,-15.891 4.27,0 8.14,2.391 11.72,5.969 -0.9,-3.484 -4.17,-16.891 -4.47,-17.781 -0.79,-2.781 -1.59,-3.188 -7.15,-3.281 -1.3,0 -2.28,0 -2.28,-1.985 0,-0.109 0,-1.094 1.28,-1.094 3.19,0 6.65,0.297 9.94,0.297 3.37,0 6.95,-0.297 10.23,-0.297 0.5,0 1.78,0 1.78,1.985 0,1.094 -0.98,1.094 -2.58,1.094 -4.76,0 -4.76,0.687 -4.76,1.578 0,0.703 0.2,1.297 0.39,2.187 z m -27.52,-41.719 c -5.97,0 -6.36,7.64 -6.36,9.344 0,4.765 2.88,15.593 4.56,19.765 3.08,7.344 8.25,11.516 12.32,11.516 6.47,0 7.86,-8.047 7.86,-8.735 0,-0.593 -5.47,-22.359 -5.77,-22.75 -1.48,-2.781 -7.05,-9.14 -12.61,-9.14"
         style="fill:#000000;fill-opacity:1;fill-rule:nonzero;stroke:none"
         id="path48" /><path
         d="m 2274.19,359.484 c 5.48,0 9.42,-3.796 9.42,-11.328 0,-8.718 -5.06,-11.312 -9.14,-11.312 -2.81,0 -9,0.765 -11.95,4.922 3.31,0.14 4.07,2.453 4.07,3.937 0,2.25 -1.68,3.86 -3.86,3.86 -1.96,0 -3.93,-1.188 -3.93,-4.079 0,-6.609 7.31,-10.89 15.81,-10.89 9.78,0 16.53,6.531 16.53,13.562 0,5.485 -4.5,10.969 -12.23,12.594 7.37,2.672 10.04,7.938 10.04,12.234 0,5.547 -6.39,9.688 -14.2,9.688 -7.8,0 -13.78,-3.781 -13.78,-9.406 0,-2.391 1.55,-3.735 3.66,-3.735 2.18,0 3.59,1.625 3.59,3.594 0,2.031 -1.41,3.516 -3.59,3.656 2.46,3.094 7.31,3.86 9.92,3.86 3.15,0 7.59,-1.547 7.59,-7.657 0,-2.953 -0.98,-6.187 -2.81,-8.375 -2.33,-2.671 -4.3,-2.812 -7.81,-3.015 -1.75,-0.141 -1.89,-0.141 -2.25,-0.219 -0.14,0 -0.71,-0.141 -0.71,-0.906 0,-0.985 0.64,-0.985 1.83,-0.985 h 3.8"
         style="fill:#000000;fill-opacity:1;fill-rule:nonzero;stroke:none"
         id="path50" /><path
         d="m 2275.55,319.703 c 0,1.906 -0.14,1.969 -2.11,1.969 -4.5,-4.422 -10.89,-4.484 -13.78,-4.484 v -2.532 c 1.68,0 6.32,0 10.2,1.969 v -35.859 c 0,-2.328 0,-3.235 -7.03,-3.235 h -2.67 V 275 c 1.26,0.063 9.9,0.281 12.51,0.281 2.17,0 11.03,-0.218 12.58,-0.281 v 2.531 h -2.67 c -7.03,0 -7.03,0.907 -7.03,3.235 v 38.937"
         style="fill:#000000;fill-opacity:1;fill-rule:nonzero;stroke:none"
         id="path52" /><path
         d="m 2796.24,328.059 c 0,64.765 -52.51,117.269 -117.27,117.269 -64.76,0 -117.27,-52.504 -117.27,-117.269 0,-64.766 52.51,-117.266 117.27,-117.266 64.76,0 117.27,52.5 117.27,117.266 z"
         style="fill:none;stroke:#000000;stroke-width:7.9701;stroke-linecap:butt;stroke-linejoin:miter;stroke-miterlimit:10;stroke-dasharray:none;stroke-opacity:1"
         id="path54" /><path
         d="m 2677.91,342.813 c 0,0.406 -0.3,1 -1,1 -1.1,0 -5.07,-3.985 -6.75,-6.86 -2.19,5.36 -6.07,6.953 -9.25,6.953 -11.72,0 -23.94,-14.703 -23.94,-29.109 0,-9.734 5.86,-15.891 13.12,-15.891 4.27,0 8.14,2.391 11.72,5.969 -0.9,-3.484 -4.17,-16.891 -4.47,-17.781 -0.79,-2.781 -1.59,-3.188 -7.15,-3.281 -1.3,0 -2.28,0 -2.28,-1.985 0,-0.109 0,-1.094 1.28,-1.094 3.19,0 6.65,0.297 9.94,0.297 3.37,0 6.95,-0.297 10.23,-0.297 0.5,0 1.78,0 1.78,1.985 0,1.094 -0.98,1.094 -2.58,1.094 -4.76,0 -4.76,0.687 -4.76,1.578 0,0.703 0.2,1.297 0.39,2.187 z m -27.52,-41.719 c -5.97,0 -6.36,7.64 -6.36,9.344 0,4.765 2.88,15.593 4.56,19.765 3.08,7.344 8.25,11.516 12.32,11.516 6.47,0 7.86,-8.047 7.86,-8.735 0,-0.593 -5.47,-22.359 -5.77,-22.75 -1.48,-2.781 -7.05,-9.14 -12.61,-9.14"
         style="fill:#000000;fill-opacity:1;fill-rule:nonzero;stroke:none"
         id="path56" /><path
         d="m 2700.19,359.484 c 5.48,0 9.42,-3.796 9.42,-11.328 0,-8.718 -5.06,-11.312 -9.14,-11.312 -2.81,0 -9,0.765 -11.95,4.922 3.31,0.14 4.07,2.453 4.07,3.937 0,2.25 -1.68,3.86 -3.86,3.86 -1.96,0 -3.93,-1.188 -3.93,-4.079 0,-6.609 7.31,-10.89 15.81,-10.89 9.78,0 16.53,6.531 16.53,13.562 0,5.485 -4.5,10.969 -12.23,12.594 7.37,2.672 10.04,7.938 10.04,12.234 0,5.547 -6.39,9.688 -14.2,9.688 -7.8,0 -13.78,-3.781 -13.78,-9.406 0,-2.391 1.55,-3.735 3.66,-3.735 2.18,0 3.59,1.625 3.59,3.594 0,2.031 -1.41,3.516 -3.59,3.656 2.46,3.094 7.31,3.86 9.92,3.86 3.15,0 7.59,-1.547 7.59,-7.657 0,-2.953 -0.98,-6.187 -2.81,-8.375 -2.33,-2.671 -4.3,-2.812 -7.81,-3.015 -1.75,-0.141 -1.89,-0.141 -2.25,-0.219 -0.14,0 -0.71,-0.141 -0.71,-0.906 0,-0.985 0.64,-0.985 1.83,-0.985 h 3.8"
         style="fill:#000000;fill-opacity:1;fill-rule:nonzero;stroke:none"
         id="path58" /><path
         d="m 2712.5,287.797 h -2.39 c -0.2,-1.547 -0.91,-5.703 -1.83,-6.406 -0.56,-0.422 -5.97,-0.422 -6.95,-0.422 h -12.94 c 7.38,6.547 9.84,8.515 14.06,11.812 5.21,4.157 10.05,8.516 10.05,15.188 0,8.515 -7.45,13.703 -16.45,13.703 -8.72,0 -14.63,-6.109 -14.63,-12.578 0,-3.578 3.03,-3.938 3.74,-3.938 1.68,0 3.72,1.203 3.72,3.735 0,1.265 -0.49,3.718 -4.15,3.718 2.18,5 6.96,6.547 10.27,6.547 7.03,0 10.69,-5.484 10.69,-11.187 0,-6.11 -4.36,-10.969 -6.61,-13.5 l -16.95,-16.735 c -0.71,-0.625 -0.71,-0.765 -0.71,-2.734 h 28.97 l 2.11,12.797"
         style="fill:#000000;fill-opacity:1;fill-rule:nonzero;stroke:none"
         id="path60" /><path
         d="m 3221.44,328.059 c 0,64.765 -52.5,117.269 -117.27,117.269 -64.76,0 -117.26,-52.504 -117.26,-117.269 0,-64.766 52.5,-117.266 117.26,-117.266 64.77,0 117.27,52.5 117.27,117.266 z"
         style="fill:none;stroke:#000000;stroke-width:7.9701;stroke-linecap:butt;stroke-linejoin:miter;stroke-miterlimit:10;stroke-dasharray:none;stroke-opacity:1"
         id="path62" /><path
         d="m 3102.91,342.813 c 0,0.406 -0.3,1 -1,1 -1.1,0 -5.07,-3.985 -6.75,-6.86 -2.19,5.36 -6.07,6.953 -9.25,6.953 -11.72,0 -23.94,-14.703 -23.94,-29.109 0,-9.734 5.86,-15.891 13.12,-15.891 4.27,0 8.14,2.391 11.72,5.969 -0.9,-3.484 -4.17,-16.891 -4.47,-17.781 -0.79,-2.781 -1.59,-3.188 -7.15,-3.281 -1.3,0 -2.28,0 -2.28,-1.985 0,-0.109 0,-1.094 1.28,-1.094 3.19,0 6.65,0.297 9.94,0.297 3.37,0 6.95,-0.297 10.23,-0.297 0.5,0 1.78,0 1.78,1.985 0,1.094 -0.98,1.094 -2.58,1.094 -4.76,0 -4.76,0.687 -4.76,1.578 0,0.703 0.2,1.297 0.39,2.187 z m -27.52,-41.719 c -5.97,0 -6.36,7.64 -6.36,9.344 0,4.765 2.88,15.593 4.56,19.765 3.08,7.344 8.25,11.516 12.32,11.516 6.47,0 7.86,-8.047 7.86,-8.735 0,-0.593 -5.47,-22.359 -5.77,-22.75 -1.48,-2.781 -7.05,-9.14 -12.61,-9.14"
         style="fill:#000000;fill-opacity:1;fill-rule:nonzero;stroke:none"
         id="path64" /><path
         d="m 3143.19,347.531 v 2.532 h -7.8 v 31.343 c 0,1.485 0,1.969 -1.55,1.969 -0.84,0 -1.12,0 -1.82,-0.984 l -23.29,-32.328 v -2.532 h 20.68 v -5.765 c 0,-2.391 0,-3.235 -5.69,-3.235 h -1.91 V 336 c 3.52,0.141 8.02,0.281 10.55,0.281 2.61,0 7.11,-0.14 10.62,-0.281 v 2.531 h -1.9 c -5.69,0 -5.69,0.844 -5.69,3.235 v 5.765 z m -13.28,28.266 v -25.734 h -18.57 z"
         style="fill:#000000;fill-opacity:1;fill-rule:nonzero;stroke:none"
         id="path66" /><path
         d="m 3125.55,319.703 c 0,1.906 -0.14,1.969 -2.11,1.969 -4.5,-4.422 -10.89,-4.484 -13.78,-4.484 v -2.532 c 1.68,0 6.32,0 10.2,1.969 v -35.859 c 0,-2.328 0,-3.235 -7.03,-3.235 h -2.67 V 275 c 1.26,0.063 9.9,0.281 12.51,0.281 2.17,0 11.03,-0.218 12.58,-0.281 v 2.531 h -2.67 c -7.03,0 -7.03,0.907 -7.03,3.235 v 38.937"
         style="fill:#000000;fill-opacity:1;fill-rule:nonzero;stroke:none"
         id="path68" /><path
         d="m 3646.64,328.059 c 0,64.765 -52.5,117.269 -117.26,117.269 -64.77,0 -117.27,-52.504 -117.27,-117.269 0,-64.766 52.5,-117.266 117.27,-117.266 64.76,0 117.26,52.5 117.26,117.266 z"
         style="fill:none;stroke:#000000;stroke-width:7.9701;stroke-linecap:butt;stroke-linejoin:miter;stroke-miterlimit:10;stroke-dasharray:none;stroke-opacity:1"
         id="path70" /><path
         d="m 3527.91,342.813 c 0,0.406 -0.3,1 -1,1 -1.1,0 -5.07,-3.985 -6.75,-6.86 -2.19,5.36 -6.07,6.953 -9.25,6.953 -11.72,0 -23.94,-14.703 -23.94,-29.109 0,-9.734 5.86,-15.891 13.12,-15.891 4.27,0 8.14,2.391 11.72,5.969 -0.9,-3.484 -4.17,-16.891 -4.47,-17.781 -0.79,-2.781 -1.59,-3.188 -7.15,-3.281 -1.3,0 -2.28,0 -2.28,-1.985 0,-0.109 0,-1.094 1.28,-1.094 3.19,0 6.65,0.297 9.94,0.297 3.37,0 6.95,-0.297 10.23,-0.297 0.5,0 1.78,0 1.78,1.985 0,1.094 -0.98,1.094 -2.58,1.094 -4.76,0 -4.76,0.687 -4.76,1.578 0,0.703 0.2,1.297 0.39,2.187 z m -27.52,-41.719 c -5.97,0 -6.36,7.64 -6.36,9.344 0,4.765 2.88,15.593 4.56,19.765 3.08,7.344 8.25,11.516 12.32,11.516 6.47,0 7.86,-8.047 7.86,-8.735 0,-0.593 -5.47,-22.359 -5.77,-22.75 -1.48,-2.781 -7.05,-9.14 -12.61,-9.14"
         style="fill:#000000;fill-opacity:1;fill-rule:nonzero;stroke:none"
         id="path72" /><path
         d="m 3568.19,347.531 v 2.532 h -7.8 v 31.343 c 0,1.485 0,1.969 -1.55,1.969 -0.84,0 -1.12,0 -1.82,-0.984 l -23.29,-32.328 v -2.532 h 20.68 v -5.765 c 0,-2.391 0,-3.235 -5.69,-3.235 h -1.91 V 336 c 3.52,0.141 8.02,0.281 10.55,0.281 2.61,0 7.11,-0.14 10.62,-0.281 v 2.531 h -1.9 c -5.69,0 -5.69,0.844 -5.69,3.235 v 5.765 z m -13.28,28.266 v -25.734 h -18.57 z"
         style="fill:#000000;fill-opacity:1;fill-rule:nonzero;stroke:none"
         id="path74" /><path
         d="m 3562.5,287.797 h -2.39 c -0.2,-1.547 -0.91,-5.703 -1.83,-6.406 -0.56,-0.422 -5.97,-0.422 -6.95,-0.422 h -12.94 c 7.38,6.547 9.84,8.515 14.06,11.812 5.21,4.157 10.05,8.516 10.05,15.188 0,8.515 -7.45,13.703 -16.45,13.703 -8.72,0 -14.63,-6.109 -14.63,-12.578 0,-3.578 3.03,-3.938 3.74,-3.938 1.68,0 3.72,1.203 3.72,3.735 0,1.265 -0.49,3.718 -4.15,3.718 2.18,5 6.96,6.547 10.27,6.547 7.03,0 10.69,-5.484 10.69,-11.187 0,-6.11 -4.36,-10.969 -6.61,-13.5 l -16.95,-16.735 c -0.71,-0.625 -0.71,-0.765 -0.71,-2.734 h 28.97 l 2.11,12.797"
         style="fill:#000000;fill-opacity:1;fill-rule:nonzero;stroke:none"
         id="path76" /><path
         d="m 1159.17,1093.43 c 0,60.83 -49.31,110.14 -110.15,110.14 -60.829,0 -110.141,-49.31 -110.141,-110.14 0,-60.84 49.312,-110.149 110.141,-110.149 60.84,0 110.15,49.309 110.15,110.149 z"
         style="fill:none;stroke:#000000;stroke-width:7.9701;stroke-linecap:butt;stroke-linejoin:miter;stroke-miterlimit:10;stroke-dasharray:none;stroke-opacity:1"
         id="path78" /><path
         d="m 1036.89,1112.67 c 0.5,2.19 1.5,5.86 1.5,6.46 0,1.79 -1.39,2.68 -2.89,2.68 -1.19,0 -2.98,-0.79 -3.67,-2.78 -0.3,-0.69 -4.97,-19.67 -5.66,-22.25 -0.7,-2.98 -0.9,-4.76 -0.9,-6.56 0,-1.09 0,-1.28 0.11,-1.78 -2.3,-5.27 -5.27,-8.35 -9.15,-8.35 -7.95,0 -7.95,7.35 -7.95,9.04 0,3.18 0.5,7.06 5.17,19.28 1.1,2.98 1.69,4.37 1.69,6.36 0,4.46 -3.28,8.14 -8.14,8.14 -9.437,0 -13.125,-14.41 -13.125,-15.3 0,-1 1,-1 1.203,-1 0.985,0 1.094,0.2 1.578,1.8 2.688,9.23 6.564,12.31 10.034,12.31 0.9,0 2.48,-0.09 2.48,-3.28 0,-2.49 -1.08,-5.27 -1.78,-6.96 -4.37,-11.71 -5.56,-16.28 -5.56,-20.06 0,-9.03 6.65,-12.51 14.11,-12.51 1.69,0 6.36,0 10.33,6.95 2.57,-6.36 9.43,-6.95 12.42,-6.95 7.44,0 11.81,6.26 14.39,12.22 3.39,7.75 6.56,21.06 6.56,25.82 0,5.47 -2.69,6.96 -4.37,6.96 -2.49,0 -4.97,-2.58 -4.97,-4.77 0,-1.3 0.61,-1.89 1.5,-2.69 1.09,-1.09 3.58,-3.67 3.58,-8.43 0,-3.38 -2.9,-13.11 -5.47,-18.19 -2.58,-5.27 -6.07,-8.74 -10.93,-8.74 -4.67,0 -7.35,2.99 -7.35,8.64 0,2.79 0.7,5.86 1.09,7.25 l 4.17,16.69"
         style="fill:#000000;fill-opacity:1;fill-rule:nonzero;stroke:none"
         id="path80" /><path
         d="m 1085.55,1108.7 c 0,1.91 -0.14,1.97 -2.11,1.97 -4.5,-4.42 -10.89,-4.48 -13.78,-4.48 v -2.53 c 1.68,0 6.32,0 10.2,1.97 v -35.86 c 0,-2.33 0,-3.24 -7.03,-3.24 h -2.67 V 1064 c 1.26,0.06 9.9,0.28 12.51,0.28 2.17,0 11.03,-0.22 12.58,-0.28 v 2.53 h -2.67 c -7.03,0 -7.03,0.91 -7.03,3.24 v 38.93"
         style="fill:#000000;fill-opacity:1;fill-rule:nonzero;stroke:none"
         id="path82" /><path
         d="m 2151.3,1093.43 c 0,60.83 -49.31,110.14 -110.14,110.14 -60.84,0 -110.15,-49.31 -110.15,-110.14 0,-60.84 49.31,-110.149 110.15,-110.149 60.83,0 110.14,49.309 110.14,110.149 z"
         style="fill:none;stroke:#000000;stroke-width:7.9701;stroke-linecap:butt;stroke-linejoin:miter;stroke-miterlimit:10;stroke-dasharray:none;stroke-opacity:1"
         id="path84" /><path
         d="m 2028.89,1112.67 c 0.5,2.19 1.5,5.86 1.5,6.46 0,1.79 -1.39,2.68 -2.89,2.68 -1.19,0 -2.98,-0.79 -3.67,-2.78 -0.3,-0.69 -4.97,-19.67 -5.66,-22.25 -0.7,-2.98 -0.9,-4.76 -0.9,-6.56 0,-1.09 0,-1.28 0.11,-1.78 -2.3,-5.27 -5.27,-8.35 -9.15,-8.35 -7.95,0 -7.95,7.35 -7.95,9.04 0,3.18 0.5,7.06 5.17,19.28 1.1,2.98 1.69,4.37 1.69,6.36 0,4.46 -3.28,8.14 -8.14,8.14 -9.44,0 -13.12,-14.41 -13.12,-15.3 0,-1 1,-1 1.2,-1 0.98,0 1.09,0.2 1.58,1.8 2.68,9.23 6.56,12.31 10.03,12.31 0.9,0 2.48,-0.09 2.48,-3.28 0,-2.49 -1.08,-5.27 -1.78,-6.96 -4.37,-11.71 -5.56,-16.28 -5.56,-20.06 0,-9.03 6.65,-12.51 14.11,-12.51 1.69,0 6.36,0 10.33,6.95 2.57,-6.36 9.43,-6.95 12.42,-6.95 7.44,0 11.81,6.26 14.39,12.22 3.39,7.75 6.56,21.06 6.56,25.82 0,5.47 -2.69,6.96 -4.37,6.96 -2.49,0 -4.97,-2.58 -4.97,-4.77 0,-1.3 0.61,-1.89 1.5,-2.69 1.09,-1.09 3.58,-3.67 3.58,-8.43 0,-3.38 -2.9,-13.11 -5.47,-18.19 -2.58,-5.27 -6.07,-8.74 -10.93,-8.74 -4.67,0 -7.35,2.99 -7.35,8.64 0,2.79 0.7,5.86 1.09,7.25 l 4.17,16.69"
         style="fill:#000000;fill-opacity:1;fill-rule:nonzero;stroke:none"
         id="path86" /><path
         d="m 2089.5,1076.8 h -2.39 c -0.2,-1.55 -0.91,-5.71 -1.83,-6.41 -0.56,-0.42 -5.97,-0.42 -6.95,-0.42 h -12.94 c 7.38,6.55 9.84,8.51 14.06,11.81 5.21,4.16 10.05,8.52 10.05,15.19 0,8.51 -7.45,13.7 -16.45,13.7 -8.72,0 -14.63,-6.11 -14.63,-12.58 0,-3.57 3.03,-3.93 3.74,-3.93 1.68,0 3.72,1.2 3.72,3.73 0,1.27 -0.49,3.72 -4.15,3.72 2.18,5 6.96,6.55 10.27,6.55 7.03,0 10.69,-5.49 10.69,-11.19 0,-6.11 -4.36,-10.97 -6.61,-13.5 l -16.95,-16.74 c -0.71,-0.62 -0.71,-0.76 -0.71,-2.73 h 28.97 l 2.11,12.8"
         style="fill:#000000;fill-opacity:1;fill-rule:nonzero;stroke:none"
         id="path88" /><path
         d="m 3143.43,1093.43 c 0,60.83 -49.31,110.14 -110.14,110.14 -60.84,0 -110.15,-49.31 -110.15,-110.14 0,-60.84 49.31,-110.149 110.15,-110.149 60.83,0 110.14,49.309 110.14,110.149 z"
         style="fill:none;stroke:#000000;stroke-width:7.9701;stroke-linecap:butt;stroke-linejoin:miter;stroke-miterlimit:10;stroke-dasharray:none;stroke-opacity:1"
         id="path90" /><path
         d="m 3020.89,1112.67 c 0.5,2.19 1.5,5.86 1.5,6.46 0,1.79 -1.39,2.68 -2.89,2.68 -1.19,0 -2.98,-0.79 -3.67,-2.78 -0.3,-0.69 -4.97,-19.67 -5.66,-22.25 -0.7,-2.98 -0.9,-4.76 -0.9,-6.56 0,-1.09 0,-1.28 0.11,-1.78 -2.3,-5.27 -5.27,-8.35 -9.15,-8.35 -7.95,0 -7.95,7.35 -7.95,9.04 0,3.18 0.5,7.06 5.17,19.28 1.1,2.98 1.69,4.37 1.69,6.36 0,4.46 -3.28,8.14 -8.14,8.14 -9.44,0 -13.12,-14.41 -13.12,-15.3 0,-1 1,-1 1.2,-1 0.98,0 1.09,0.2 1.58,1.8 2.68,9.23 6.56,12.31 10.03,12.31 0.9,0 2.48,-0.09 2.48,-3.28 0,-2.49 -1.08,-5.27 -1.78,-6.96 -4.37,-11.71 -5.56,-16.28 -5.56,-20.06 0,-9.03 6.65,-12.51 14.11,-12.51 1.69,0 6.36,0 10.33,6.95 2.57,-6.36 9.43,-6.95 12.42,-6.95 7.44,0 11.81,6.26 14.39,12.22 3.39,7.75 6.56,21.06 6.56,25.82 0,5.47 -2.69,6.96 -4.37,6.96 -2.49,0 -4.97,-2.58 -4.97,-4.77 0,-1.3 0.61,-1.89 1.5,-2.69 1.09,-1.09 3.58,-3.67 3.58,-8.43 0,-3.38 -2.9,-13.11 -5.47,-18.19 -2.58,-5.27 -6.07,-8.74 -10.93,-8.74 -4.67,0 -7.35,2.99 -7.35,8.64 0,2.79 0.7,5.86 1.09,7.25 l 4.17,16.69"
         style="fill:#000000;fill-opacity:1;fill-rule:nonzero;stroke:none"
         id="path92" /><path
         d="m 3066.19,1087.48 c 5.48,0 9.42,-3.79 9.42,-11.32 0,-8.72 -5.06,-11.32 -9.14,-11.32 -2.81,0 -9,0.77 -11.95,4.93 3.31,0.14 4.07,2.45 4.07,3.93 0,2.25 -1.68,3.86 -3.86,3.86 -1.96,0 -3.93,-1.18 -3.93,-4.08 0,-6.6 7.31,-10.89 15.81,-10.89 9.78,0 16.53,6.54 16.53,13.57 0,5.48 -4.5,10.97 -12.23,12.59 7.37,2.67 10.04,7.94 10.04,12.23 0,5.55 -6.39,9.69 -14.2,9.69 -7.8,0 -13.78,-3.78 -13.78,-9.4 0,-2.39 1.55,-3.74 3.66,-3.74 2.18,0 3.59,1.63 3.59,3.6 0,2.03 -1.41,3.51 -3.59,3.65 2.46,3.1 7.31,3.86 9.92,3.86 3.15,0 7.59,-1.55 7.59,-7.66 0,-2.95 -0.98,-6.18 -2.81,-8.37 -2.33,-2.67 -4.3,-2.81 -7.81,-3.02 -1.75,-0.14 -1.89,-0.14 -2.25,-0.21 -0.14,0 -0.71,-0.15 -0.71,-0.91 0,-0.99 0.64,-0.99 1.83,-0.99 h 3.8"
         style="fill:#000000;fill-opacity:1;fill-rule:nonzero;stroke:none"
         id="path94" /><path
         d="m 1645.58,1603.67 c 0,55.5 -44.99,100.49 -100.49,100.49 -55.5,0 -100.49,-44.99 -100.49,-100.49 0,-55.5 44.99,-100.49 100.49,-100.49 55.5,0 100.49,44.99 100.49,100.49 z"
         style="fill:none;stroke:#000000;stroke-width:7.9701;stroke-linecap:butt;stroke-linejoin:miter;stroke-miterlimit:10;stroke-dasharray:none;stroke-opacity:1"
         id="path96" /><path
         d="m 1537.84,1627.16 c -2.78,-0.11 -4.76,-2.28 -4.76,-4.47 0,-1.39 0.89,-2.89 3.08,-2.89 2.18,0 4.56,1.68 4.56,5.56 0,4.47 -4.27,8.55 -11.81,8.55 -13.13,0 -16.8,-10.13 -16.8,-14.5 0,-7.75 7.36,-9.24 10.23,-9.85 5.18,-0.98 10.33,-2.08 10.33,-7.54 0,-2.58 -2.28,-10.93 -14.2,-10.93 -1.39,0 -9.03,0 -11.33,5.27 3.78,-0.5 6.27,2.48 6.27,5.27 0,2.28 -1.6,3.46 -3.68,3.46 -2.59,0 -5.56,-2.07 -5.56,-6.54 0,-5.67 5.66,-9.64 14.21,-9.64 16.09,0 19.96,12.01 19.96,16.48 0,3.58 -1.89,6.06 -3.07,7.27 -2.69,2.78 -5.58,3.26 -9.94,4.17 -3.58,0.78 -7.55,1.48 -7.55,5.95 0,2.88 2.38,8.94 11.13,8.94 2.48,0 7.43,-0.69 8.93,-4.56"
         style="fill:#000000;fill-opacity:1;fill-rule:nonzero;stroke:none"
         id="path98" /><path
         d="m 1569.55,1619.7 c 0,1.91 -0.14,1.97 -2.11,1.97 -4.5,-4.42 -10.89,-4.48 -13.78,-4.48 v -2.53 c 1.68,0 6.32,0 10.2,1.97 v -35.86 c 0,-2.33 0,-3.24 -7.03,-3.24 h -2.67 V 1575 c 1.26,0.06 9.9,0.28 12.51,0.28 2.17,0 11.03,-0.22 12.58,-0.28 v 2.53 h -2.67 c -7.03,0 -7.03,0.91 -7.03,3.24 v 38.93"
         style="fill:#000000;fill-opacity:1;fill-rule:nonzero;stroke:none"
         id="path100" /><path
         d="m 2637.71,1603.67 c 0,55.5 -44.99,100.49 -100.49,100.49 -55.5,0 -100.49,-44.99 -100.49,-100.49 0,-55.5 44.99,-100.49 100.49,-100.49 55.5,0 100.49,44.99 100.49,100.49 z"
         style="fill:none;stroke:#000000;stroke-width:7.9701;stroke-linecap:butt;stroke-linejoin:miter;stroke-miterlimit:10;stroke-dasharray:none;stroke-opacity:1"
         id="path102" /><path
         d="m 2530.84,1627.16 c -2.78,-0.11 -4.76,-2.28 -4.76,-4.47 0,-1.39 0.89,-2.89 3.08,-2.89 2.18,0 4.56,1.68 4.56,5.56 0,4.47 -4.27,8.55 -11.81,8.55 -13.13,0 -16.8,-10.13 -16.8,-14.5 0,-7.75 7.36,-9.24 10.23,-9.85 5.18,-0.98 10.33,-2.08 10.33,-7.54 0,-2.58 -2.28,-10.93 -14.2,-10.93 -1.39,0 -9.03,0 -11.33,5.27 3.78,-0.5 6.27,2.48 6.27,5.27 0,2.28 -1.6,3.46 -3.68,3.46 -2.59,0 -5.56,-2.07 -5.56,-6.54 0,-5.67 5.66,-9.64 14.21,-9.64 16.09,0 19.96,12.01 19.96,16.48 0,3.58 -1.89,6.06 -3.07,7.27 -2.69,2.78 -5.58,3.26 -9.94,4.17 -3.58,0.78 -7.55,1.48 -7.55,5.95 0,2.88 2.38,8.94 11.13,8.94 2.48,0 7.43,-0.69 8.93,-4.56"
         style="fill:#000000;fill-opacity:1;fill-rule:nonzero;stroke:none"
         id="path104" /><path
         d="m 2573.5,1587.8 h -2.39 c -0.2,-1.55 -0.91,-5.71 -1.83,-6.41 -0.56,-0.42 -5.97,-0.42 -6.95,-0.42 h -12.94 c 7.38,6.55 9.84,8.51 14.06,11.81 5.21,4.16 10.05,8.52 10.05,15.19 0,8.51 -7.45,13.7 -16.45,13.7 -8.72,0 -14.63,-6.11 -14.63,-12.58 0,-3.57 3.03,-3.93 3.74,-3.93 1.68,0 3.72,1.2 3.72,3.73 0,1.27 -0.49,3.72 -4.15,3.72 2.18,5 6.96,6.55 10.27,6.55 7.03,0 10.69,-5.49 10.69,-11.19 0,-6.11 -4.36,-10.97 -6.61,-13.5 l -16.95,-16.74 c -0.71,-0.62 -0.71,-0.76 -0.71,-2.73 h 28.97 l 2.11,12.8"
         style="fill:#000000;fill-opacity:1;fill-rule:nonzero;stroke:none"
         id="path106" /><path
         d="m 1306.47,1838.84 c 1.69,0 3.47,0 3.47,1.99 0,2 -1.78,2 -3.47,2 h -53.75 c -1.69,0 -3.47,0 -3.47,-2 0,-1.99 1.78,-1.99 3.47,-1.99 h 53.75"
         style="fill:#000000;fill-opacity:1;fill-rule:nonzero;stroke:none"
         id="path108" /><path
         d="m 1348.2,1879.58 c 0,2.37 0,2.58 -2.28,2.58 -6.15,-6.36 -14.9,-6.36 -18.08,-6.36 v -3.08 c 1.99,0 7.85,0 13.02,2.58 v -51.46 c 0,-3.57 -0.3,-4.76 -9.25,-4.76 h -3.17 V 1816 c 3.47,0.3 12.12,0.3 16.09,0.3 3.97,0 12.61,0 16.1,-0.3 v 3.08 h -3.19 c -8.94,0 -9.24,1.09 -9.24,4.76 v 55.74"
         style="fill:#000000;fill-opacity:1;fill-rule:nonzero;stroke:none"
         id="path110" /><path
         d="m 2298.47,1838.84 c 1.69,0 3.47,0 3.47,1.99 0,2 -1.78,2 -3.47,2 h -53.75 c -1.69,0 -3.47,0 -3.47,-2 0,-1.99 1.78,-1.99 3.47,-1.99 h 53.75"
         style="fill:#000000;fill-opacity:1;fill-rule:nonzero;stroke:none"
         id="path112" /><path
         d="m 2339.81,1850.97 c 8.14,2.69 13.91,9.64 13.91,17.48 0,8.14 -8.75,13.71 -18.28,13.71 -10.03,0 -17.58,-5.96 -17.58,-13.5 0,-3.28 2.19,-5.18 5.06,-5.18 3.08,0 5.06,2.19 5.06,5.07 0,4.97 -4.67,4.97 -6.15,4.97 3.08,4.87 9.64,6.15 13.22,6.15 4.06,0 9.53,-2.19 9.53,-11.12 0,-1.19 -0.2,-6.96 -2.78,-11.33 -2.99,-4.77 -6.36,-5.06 -8.85,-5.16 -0.79,-0.11 -3.17,-0.29 -3.87,-0.29 -0.8,-0.11 -1.49,-0.21 -1.49,-1.21 0,-1.08 0.69,-1.08 2.38,-1.08 h 4.37 c 8.14,0 11.83,-6.76 11.83,-16.5 0,-13.5 -6.86,-16.39 -11.23,-16.39 -4.27,0 -11.72,1.69 -15.21,7.55 3.49,-0.48 6.57,1.69 6.57,5.47 0,3.58 -2.69,5.56 -5.57,5.56 -2.39,0 -5.56,-1.39 -5.56,-5.76 0,-9.03 9.24,-15.6 20.06,-15.6 12.13,0 21.16,9.05 21.16,19.17 0,8.15 -6.25,15.9 -16.58,17.99"
         style="fill:#000000;fill-opacity:1;fill-rule:nonzero;stroke:none"
         id="path114" /><path
         d="m 810.469,1328.84 c 1.687,0 3.469,0 3.469,1.99 0,2 -1.782,2 -3.469,2 h -53.75 c -1.688,0 -3.469,0 -3.469,-2 0,-1.99 1.781,-1.99 3.469,-1.99 h 53.75"
         style="fill:#000000;fill-opacity:1;fill-rule:nonzero;stroke:none"
         id="path116" /><path
         d="m 851.203,1369.58 c 0,2.37 0,2.58 -2.281,2.58 -6.156,-6.36 -14.906,-6.36 -18.078,-6.36 v -3.08 c 1.984,0 7.844,0 13.015,2.58 v -51.46 c 0,-3.57 -0.296,-4.76 -9.25,-4.76 h -3.171 V 1306 c 3.468,0.3 12.125,0.3 16.093,0.3 3.969,0 12.61,0 16.094,-0.3 v 3.08 h -3.187 c -8.938,0 -9.235,1.09 -9.235,4.76 v 55.74"
         style="fill:#000000;fill-opacity:1;fill-rule:nonzero;stroke:none"
         id="path118" /><path
         d="m 2283.47,1328.84 c 1.69,0 3.47,0 3.47,1.99 0,2 -1.78,2 -3.47,2 h -53.75 c -1.69,0 -3.47,0 -3.47,-2 0,-1.99 1.78,-1.99 3.47,-1.99 h 53.75"
         style="fill:#000000;fill-opacity:1;fill-rule:nonzero;stroke:none"
         id="path120" /><path
         d="m 2308.61,1313.66 10.53,10.22 c 15.5,13.71 21.47,19.07 21.47,29.01 0,11.33 -8.95,19.27 -21.06,19.27 -11.24,0 -18.58,-9.14 -18.58,-17.99 0,-5.56 4.97,-5.56 5.26,-5.56 1.69,0 5.16,1.2 5.16,5.27 0,2.59 -1.78,5.17 -5.26,5.17 -0.79,0 -0.99,0 -1.29,-0.1 2.29,6.46 7.64,10.13 13.41,10.13 9.05,0 13.31,-8.05 13.31,-16.19 0,-7.95 -4.97,-15.8 -10.43,-21.95 l -19.07,-21.27 c -1.09,-1.09 -1.09,-1.28 -1.09,-3.67 h 36.86 l 2.78,17.28 h -2.48 c -0.5,-2.98 -1.21,-7.34 -2.19,-8.84 -0.71,-0.78 -7.25,-0.78 -9.44,-0.78 h -17.89"
         style="fill:#000000;fill-opacity:1;fill-rule:nonzero;stroke:none"
         id="path122" /><path
         d="m 3275.47,1328.84 c 1.69,0 3.47,0 3.47,1.99 0,2 -1.78,2 -3.47,2 h -53.75 c -1.69,0 -3.47,0 -3.47,-2 0,-1.99 1.78,-1.99 3.47,-1.99 h 53.75"
         style="fill:#000000;fill-opacity:1;fill-rule:nonzero;stroke:none"
         id="path124" /><path
         d="m 3317.2,1369.58 c 0,2.37 0,2.58 -2.28,2.58 -6.15,-6.36 -14.9,-6.36 -18.08,-6.36 v -3.08 c 1.99,0 7.85,0 13.02,2.58 v -51.46 c 0,-3.57 -0.3,-4.76 -9.25,-4.76 h -3.17 V 1306 c 3.47,0.3 12.12,0.3 16.09,0.3 3.97,0 12.61,0 16.1,-0.3 v 3.08 h -3.19 c -8.94,0 -9.24,1.09 -9.24,4.76 v 55.74"
         style="fill:#000000;fill-opacity:1;fill-rule:nonzero;stroke:none"
         id="path126" /><path
         d="m 798.203,118.578 c 0,2.375 0,2.578 -2.281,2.578 -6.156,-6.359 -14.906,-6.359 -18.078,-6.359 v -3.078 c 1.984,0 7.844,0 13.015,2.578 V 62.8438 c 0,-3.5782 -0.296,-4.7657 -9.25,-4.7657 h -3.171 V 55 c 3.468,0.2969 12.125,0.2969 16.093,0.2969 3.969,0 12.61,0 16.094,-0.2969 v 3.0781 h -3.187 c -8.938,0 -9.235,1.0938 -9.235,4.7657 v 55.7342"
         style="fill:#000000;fill-opacity:1;fill-rule:nonzero;stroke:none"
         id="path128" /><path
         d="m 1223.2,118.578 c 0,2.375 0,2.578 -2.28,2.578 -6.15,-6.359 -14.9,-6.359 -18.08,-6.359 v -3.078 c 1.99,0 7.85,0 13.02,2.578 V 62.8438 c 0,-3.5782 -0.3,-4.7657 -9.25,-4.7657 h -3.17 V 55 c 3.47,0.2969 12.12,0.2969 16.09,0.2969 3.97,0 12.61,0 16.1,-0.2969 v 3.0781 h -3.19 c -8.94,0 -9.24,1.0938 -9.24,4.7657 v 55.7342"
         style="fill:#000000;fill-opacity:1;fill-rule:nonzero;stroke:none"
         id="path130" /><path
         d="m 1648.2,118.578 c 0,2.375 0,2.578 -2.28,2.578 -6.15,-6.359 -14.9,-6.359 -18.08,-6.359 v -3.078 c 1.99,0 7.85,0 13.02,2.578 V 62.8438 c 0,-3.5782 -0.3,-4.7657 -9.25,-4.7657 h -3.17 V 55 c 3.47,0.2969 12.12,0.2969 16.09,0.2969 3.97,0 12.61,0 16.1,-0.2969 v 3.0781 h -3.19 c -8.94,0 -9.24,1.0938 -9.24,4.7657 v 55.7342"
         style="fill:#000000;fill-opacity:1;fill-rule:nonzero;stroke:none"
         id="path132" /><path
         d="m 2073.2,118.578 c 0,2.375 0,2.578 -2.28,2.578 -6.15,-6.359 -14.9,-6.359 -18.08,-6.359 v -3.078 c 1.99,0 7.85,0 13.02,2.578 V 62.8438 c 0,-3.5782 -0.3,-4.7657 -9.25,-4.7657 h -3.17 V 55 c 3.47,0.2969 12.12,0.2969 16.09,0.2969 3.97,0 12.61,0 16.1,-0.2969 v 3.0781 h -3.19 c -8.94,0 -9.24,1.0938 -9.24,4.7657 v 55.7342"
         style="fill:#000000;fill-opacity:1;fill-rule:nonzero;stroke:none"
         id="path134" /><path
         d="m 2499.2,118.578 c 0,2.375 0,2.578 -2.28,2.578 -6.15,-6.359 -14.9,-6.359 -18.08,-6.359 v -3.078 c 1.99,0 7.85,0 13.02,2.578 V 62.8438 c 0,-3.5782 -0.3,-4.7657 -9.25,-4.7657 h -3.17 V 55 c 3.47,0.2969 12.12,0.2969 16.09,0.2969 3.97,0 12.61,0 16.1,-0.2969 v 3.0781 h -3.19 c -8.94,0 -9.24,1.0938 -9.24,4.7657 v 55.7342"
         style="fill:#000000;fill-opacity:1;fill-rule:nonzero;stroke:none"
         id="path136" /><path
         d="m 2924.2,118.578 c 0,2.375 0,2.578 -2.28,2.578 -6.15,-6.359 -14.9,-6.359 -18.08,-6.359 v -3.078 c 1.99,0 7.85,0 13.02,2.578 V 62.8438 c 0,-3.5782 -0.3,-4.7657 -9.25,-4.7657 h -3.17 V 55 c 3.47,0.2969 12.12,0.2969 16.09,0.2969 3.97,0 12.61,0 16.1,-0.2969 v 3.0781 h -3.19 c -8.94,0 -9.24,1.0938 -9.24,4.7657 v 55.7342"
         style="fill:#000000;fill-opacity:1;fill-rule:nonzero;stroke:none"
         id="path138" /><path
         d="m 3349.2,118.578 c 0,2.375 0,2.578 -2.28,2.578 -6.15,-6.359 -14.9,-6.359 -18.08,-6.359 v -3.078 c 1.99,0 7.85,0 13.02,2.578 V 62.8438 c 0,-3.5782 -0.3,-4.7657 -9.25,-4.7657 h -3.17 V 55 c 3.47,0.2969 12.12,0.2969 16.09,0.2969 3.97,0 12.61,0 16.1,-0.2969 v 3.0781 h -3.19 c -8.94,0 -9.24,1.0938 -9.24,4.7657 v 55.7342"
         style="fill:#000000;fill-opacity:1;fill-rule:nonzero;stroke:none"
         id="path140" /><path
         d="m 3774.2,118.578 c 0,2.375 0,2.578 -2.28,2.578 -6.15,-6.359 -14.9,-6.359 -18.08,-6.359 v -3.078 c 1.99,0 7.85,0 13.02,2.578 V 62.8438 c 0,-3.5782 -0.3,-4.7657 -9.25,-4.7657 h -3.17 V 55 c 3.47,0.2969 12.12,0.2969 16.09,0.2969 3.97,0 12.61,0 16.1,-0.2969 v 3.0781 h -3.19 c -8.94,0 -9.24,1.0938 -9.24,4.7657 v 55.7342"
         style="fill:#000000;fill-opacity:1;fill-rule:nonzero;stroke:none"
         id="path142" /><path
         d="m 3784.5,370.582 h 42.52 V 1050.9 h -42.52 m 0,85.04 h 42.52 v 425.2 h -42.52"
         style="fill:none;stroke:#000000;stroke-width:7.9701;stroke-linecap:butt;stroke-linejoin:miter;stroke-miterlimit:10;stroke-dasharray:none;stroke-opacity:1"
         id="path144" /><path
         d="m 3937.63,810.656 c 0,16.188 8.14,20.36 13.4,20.36 0.89,0 7.16,-0.094 10.63,-3.672 -4.07,-0.297 -4.66,-3.281 -4.66,-4.563 0,-2.593 1.78,-4.578 4.56,-4.578 2.58,0 4.57,1.688 4.57,4.672 0,6.75 -7.55,10.625 -15.19,10.625 -12.42,0 -21.56,-10.719 -21.56,-23.047 0,-12.719 9.84,-22.547 21.35,-22.547 13.32,0 16.49,11.922 16.49,12.922 0,0.985 -0.99,0.985 -1.28,0.985 -0.89,0 -1.1,-0.391 -1.3,-0.985 -2.87,-9.25 -9.34,-10.437 -13.01,-10.437 -5.27,0 -14,4.265 -14,20.265"
         style="fill:#000000;fill-opacity:1;fill-rule:nonzero;stroke:none"
         id="path146" /><path
         d="m 4003.08,796.547 c 0.4,-3.969 3.08,-8.141 7.75,-8.141 2.08,0 8.14,1.391 8.14,9.438 v 5.562 h -2.49 v -5.562 c 0,-5.766 -2.48,-6.36 -3.57,-6.36 -3.27,0 -3.68,4.469 -3.68,4.969 v 19.86 c 0,4.171 0,8.046 -3.57,11.734 -3.88,3.859 -8.83,5.453 -13.61,5.453 -8.14,0 -15,-4.672 -15,-11.219 0,-2.984 2,-4.672 4.58,-4.672 2.78,0 4.56,1.985 4.56,4.563 0,1.203 -0.5,4.484 -5.06,4.578 2.68,3.469 7.54,4.563 10.73,4.563 4.86,0 10.53,-3.875 10.53,-12.704 v -3.687 c -5.08,-0.297 -12.03,-0.594 -18.28,-3.578 -7.45,-3.375 -9.94,-8.531 -9.94,-12.906 0,-8.047 9.64,-10.532 15.89,-10.532 6.57,0 11.13,3.969 13.02,8.641 z m -0.69,16.297 v -9.938 c 0,-9.437 -7.16,-12.812 -11.62,-12.812 -4.88,0 -8.94,3.469 -8.94,8.437 0,5.469 4.17,13.719 20.56,14.313"
         style="fill:#000000;fill-opacity:1;fill-rule:nonzero;stroke:none"
         id="path148" /><path
         d="m 4037.09,826.344 v 6.562 l -14.31,-1.093 v -3.079 c 7.05,0 7.75,-0.593 7.75,-4.968 v -46.485 c 0,-4.468 -1.09,-4.468 -7.75,-4.468 v -3.079 c 3.38,0.094 8.55,0.297 11.13,0.297 2.68,0 7.75,-0.203 11.22,-0.297 v 3.079 c -6.65,0 -7.74,0 -7.74,4.468 v 16.688 0.89 c 0.49,-1.593 4.66,-6.953 12.22,-6.953 11.81,0 22.14,9.735 22.14,22.547 0,12.625 -9.62,22.453 -20.75,22.453 -7.75,0 -11.92,-4.375 -13.91,-6.562 z m 0.3,-26.016 v 22.156 c 2.88,5.063 7.74,7.938 12.81,7.938 7.25,0 13.32,-8.734 13.32,-19.969 0,-12.015 -6.96,-20.359 -14.32,-20.359 -3.97,0 -7.75,1.984 -10.42,6.062 -1.39,2.078 -1.39,2.188 -1.39,4.172"
         style="fill:#000000;fill-opacity:1;fill-rule:nonzero;stroke:none"
         id="path150" /><path
         d="m 4108.08,796.547 c 0.4,-3.969 3.08,-8.141 7.75,-8.141 2.08,0 8.14,1.391 8.14,9.438 v 5.562 h -2.49 v -5.562 c 0,-5.766 -2.48,-6.36 -3.57,-6.36 -3.27,0 -3.68,4.469 -3.68,4.969 v 19.86 c 0,4.171 0,8.046 -3.57,11.734 -3.88,3.859 -8.83,5.453 -13.61,5.453 -8.14,0 -15,-4.672 -15,-11.219 0,-2.984 2,-4.672 4.58,-4.672 2.78,0 4.56,1.985 4.56,4.563 0,1.203 -0.5,4.484 -5.06,4.578 2.68,3.469 7.54,4.563 10.73,4.563 4.86,0 10.53,-3.875 10.53,-12.704 v -3.687 c -5.08,-0.297 -12.03,-0.594 -18.28,-3.578 -7.45,-3.375 -9.94,-8.531 -9.94,-12.906 0,-8.047 9.64,-10.532 15.89,-10.532 6.57,0 11.13,3.969 13.02,8.641 z m -0.69,16.297 v -9.938 c 0,-9.437 -7.16,-12.812 -11.62,-12.812 -4.88,0 -8.94,3.469 -8.94,8.437 0,5.469 4.17,13.719 20.56,14.313"
         style="fill:#000000;fill-opacity:1;fill-rule:nonzero;stroke:none"
         id="path152" /><path
         d="m 4136.63,810.656 c 0,16.188 8.14,20.36 13.4,20.36 0.89,0 7.16,-0.094 10.63,-3.672 -4.07,-0.297 -4.66,-3.281 -4.66,-4.563 0,-2.593 1.78,-4.578 4.56,-4.578 2.58,0 4.57,1.688 4.57,4.672 0,6.75 -7.55,10.625 -15.19,10.625 -12.42,0 -21.56,-10.719 -21.56,-23.047 0,-12.719 9.84,-22.547 21.35,-22.547 13.32,0 16.49,11.922 16.49,12.922 0,0.985 -0.99,0.985 -1.28,0.985 -0.89,0 -1.1,-0.391 -1.3,-0.985 -2.87,-9.25 -9.34,-10.437 -13.01,-10.437 -5.27,0 -14,4.265 -14,20.265"
         style="fill:#000000;fill-opacity:1;fill-rule:nonzero;stroke:none"
         id="path154" /><path
         d="m 4187.58,832.906 -13.91,-1.093 v -3.079 c 6.46,0 7.36,-0.593 7.36,-5.468 v -26.719 c 0,-4.469 -1.09,-4.469 -7.75,-4.469 V 789 c 3.17,0.094 8.55,0.297 10.92,0.297 3.49,0 6.96,-0.203 10.33,-0.297 v 3.078 c -6.55,0 -6.95,0.5 -6.95,4.375 z m 0.4,17.282 c 0,3.187 -2.48,5.265 -5.26,5.265 -3.08,0 -5.27,-2.672 -5.27,-5.265 0,-2.672 2.19,-5.266 5.27,-5.266 2.78,0 5.26,2.094 5.26,5.266"
         style="fill:#000000;fill-opacity:1;fill-rule:nonzero;stroke:none"
         id="path156" /><path
         d="m 4214.19,828.734 h 14.2 v 3.079 h -14.2 v 18.281 h -2.49 c -0.09,-8.141 -3.07,-18.781 -12.81,-19.172 v -2.188 h 8.44 v -27.421 c 0,-12.219 9.23,-13.407 12.81,-13.407 7.06,0 9.84,7.047 9.84,13.407 v 5.671 h -2.48 v -5.468 c 0,-7.344 -2.98,-11.125 -6.66,-11.125 -6.65,0 -6.65,9.047 -6.65,10.734 v 27.609"
         style="fill:#000000;fill-opacity:1;fill-rule:nonzero;stroke:none"
         id="path158" /><path
         d="m 4274.22,822.375 c 2.59,6.266 7.66,6.359 9.25,6.359 v 3.079 c -2.3,-0.204 -5.17,-0.297 -7.45,-0.297 -1.8,0 -6.46,0.203 -8.64,0.297 v -3.079 c 3.07,-0.093 4.67,-1.781 4.67,-4.265 0,-1 -0.11,-1.203 -0.61,-2.391 l -10.03,-24.437 -11.02,26.718 c -0.41,1 -0.61,1.391 -0.61,1.797 0,2.578 3.69,2.578 5.56,2.578 v 3.079 c -2.57,-0.094 -9.12,-0.297 -10.82,-0.297 -2.68,0 -6.64,0.093 -9.63,0.297 v -3.079 c 4.77,0 6.66,0 8.05,-3.468 L 4257.83,789 c -0.49,-1.297 -1.88,-4.562 -2.49,-5.859 -2.17,-5.469 -4.95,-12.313 -11.31,-12.313 -0.5,0 -2.78,0 -4.67,1.781 3.08,0.391 3.87,2.579 3.87,4.172 0,2.578 -1.89,4.172 -4.17,4.172 -1.98,0 -4.17,-1.297 -4.17,-4.265 0,-4.469 4.17,-8.047 9.14,-8.047 6.25,0 10.33,5.656 12.7,11.312 l 17.49,42.422"
         style="fill:#000000;fill-opacity:1;fill-rule:nonzero;stroke:none"
         id="path160" /><path
         d="m 4381.25,821.484 c 1.48,0 3.38,0 3.38,1.985 0,1.984 -1.9,1.984 -3.29,1.984 h -59.5 c -1.39,0 -3.28,0 -3.28,-1.984 0,-1.985 1.89,-1.985 3.38,-1.985 z m 0.09,-19.265 c 1.39,0 3.29,0 3.29,1.984 0,1.985 -1.9,1.985 -3.38,1.985 h -59.31 c -1.49,0 -3.38,0 -3.38,-1.985 0,-1.984 1.89,-1.984 3.28,-1.984 h 59.5"
         style="fill:#000000;fill-opacity:1;fill-rule:nonzero;stroke:none"
         id="path162" /><path
         d="m 4448.2,852.578 c 0,2.375 0,2.578 -2.28,2.578 -6.15,-6.359 -14.9,-6.359 -18.08,-6.359 v -3.078 c 1.99,0 7.85,0 13.02,2.578 v -51.453 c 0,-3.578 -0.3,-4.766 -9.25,-4.766 h -3.17 V 789 c 3.47,0.297 12.12,0.297 16.09,0.297 3.97,0 12.61,0 16.1,-0.297 v 3.078 h -3.19 c -8.94,0 -9.24,1.094 -9.24,4.766 v 55.734"
         style="fill:#000000;fill-opacity:1;fill-rule:nonzero;stroke:none"
         id="path164" /><path
         d="m 3937.63,691.656 c 0,16.188 8.14,20.36 13.4,20.36 0.89,0 7.16,-0.094 10.63,-3.672 -4.07,-0.297 -4.66,-3.281 -4.66,-4.563 0,-2.593 1.78,-4.578 4.56,-4.578 2.58,0 4.57,1.688 4.57,4.672 0,6.75 -7.55,10.625 -15.19,10.625 -12.42,0 -21.56,-10.719 -21.56,-23.047 0,-12.719 9.84,-22.547 21.35,-22.547 13.32,0 16.49,11.922 16.49,12.922 0,0.985 -0.99,0.985 -1.28,0.985 -0.89,0 -1.1,-0.391 -1.3,-0.985 -2.87,-9.25 -9.34,-10.437 -13.01,-10.437 -5.27,0 -14,4.265 -14,20.265"
         style="fill:#000000;fill-opacity:1;fill-rule:nonzero;stroke:none"
         id="path166" /><path
         d="m 4016.78,691.266 c 0,12.703 -9.92,23.234 -21.95,23.234 -12.41,0 -22.05,-10.828 -22.05,-23.234 0,-12.828 10.33,-22.36 21.95,-22.36 12.02,0 22.05,9.735 22.05,22.36 z m -21.95,-19.875 c -4.27,0 -8.64,2.093 -11.31,6.656 -2.49,4.375 -2.49,10.437 -2.49,14 0,3.875 0,9.25 2.38,13.609 2.68,4.578 7.36,6.657 11.32,6.657 4.38,0 8.65,-2.188 11.22,-6.454 2.6,-4.265 2.6,-10.031 2.6,-13.812 0,-3.563 0,-8.938 -2.19,-13.313 -2.19,-4.468 -6.56,-7.343 -11.53,-7.343"
         style="fill:#000000;fill-opacity:1;fill-rule:nonzero;stroke:none"
         id="path168" /><path
         d="m 4040.66,689.266 c 2.18,-0.391 10.34,-1.985 10.34,-9.141 0,-5.062 -3.48,-9.031 -11.23,-9.031 -8.35,0 -11.93,5.656 -13.82,14.109 -0.29,1.281 -0.39,1.688 -1.39,1.688 -1.28,0 -1.28,-0.703 -1.28,-2.485 v -13.109 c 0,-1.688 0,-2.391 1.1,-2.391 0.5,0 0.59,0.094 2.48,1.985 0.19,0.203 0.19,0.406 1.98,2.281 4.38,-4.172 8.85,-4.266 10.93,-4.266 11.42,0 16,6.657 16,13.813 0,5.265 -2.99,8.234 -4.18,9.437 -3.28,3.172 -7.15,3.969 -11.32,4.766 -5.57,1.094 -12.22,2.375 -12.22,8.141 0,3.484 2.58,7.546 11.12,7.546 10.92,0 11.42,-8.937 11.63,-12.015 0.09,-0.891 0.98,-0.891 1.18,-0.891 1.3,0 1.3,0.5 1.3,2.375 v 10.047 c 0,1.688 0,2.375 -1.09,2.375 -0.5,0 -0.71,0 -1.99,-1.187 -0.29,-0.407 -1.29,-1.297 -1.68,-1.594 -3.79,2.781 -7.86,2.781 -9.35,2.781 -12.12,0 -15.89,-6.656 -15.89,-12.219 0,-3.468 1.6,-6.25 4.27,-8.437 3.18,-2.578 5.97,-3.188 13.11,-4.578"
         style="fill:#000000;fill-opacity:1;fill-rule:nonzero;stroke:none"
         id="path170" /><path
         d="m 4076.19,709.734 h 14.2 v 3.079 h -14.2 v 18.281 h -2.49 c -0.09,-8.141 -3.07,-18.781 -12.81,-19.172 v -2.188 h 8.44 v -27.421 c 0,-12.219 9.23,-13.407 12.81,-13.407 7.06,0 9.84,7.047 9.84,13.407 v 5.671 h -2.48 v -5.468 c 0,-7.344 -2.98,-11.125 -6.66,-11.125 -6.65,0 -6.65,9.047 -6.65,10.734 v 27.609"
         style="fill:#000000;fill-opacity:1;fill-rule:nonzero;stroke:none"
         id="path172" /><path
         d="m 4194.25,702.484 c 1.48,0 3.38,0 3.38,1.985 0,1.984 -1.9,1.984 -3.29,1.984 h -59.5 c -1.39,0 -3.28,0 -3.28,-1.984 0,-1.985 1.89,-1.985 3.38,-1.985 z m 0.09,-19.265 c 1.39,0 3.29,0 3.29,1.984 0,1.985 -1.9,1.985 -3.38,1.985 h -59.31 c -1.49,0 -3.38,0 -3.38,-1.985 0,-1.984 1.89,-1.984 3.28,-1.984 h 59.5"
         style="fill:#000000;fill-opacity:1;fill-rule:nonzero;stroke:none"
         id="path174" /><path
         d="m 4248.09,707.344 v 6.562 l -14.31,-1.093 v -3.079 c 7.05,0 7.75,-0.593 7.75,-4.968 v -46.485 c 0,-4.468 -1.09,-4.468 -7.75,-4.468 v -3.079 c 3.38,0.094 8.55,0.297 11.13,0.297 2.68,0 7.75,-0.203 11.22,-0.297 v 3.079 c -6.65,0 -7.74,0 -7.74,4.468 v 16.688 0.89 c 0.49,-1.593 4.66,-6.953 12.22,-6.953 11.81,0 22.14,9.735 22.14,22.547 0,12.625 -9.62,22.453 -20.75,22.453 -7.75,0 -11.92,-4.375 -13.91,-6.562 z m 0.3,-26.016 v 22.156 c 2.88,5.063 7.74,7.938 12.81,7.938 7.25,0 13.32,-8.734 13.32,-19.969 0,-12.015 -6.96,-20.359 -14.32,-20.359 -3.97,0 -7.75,1.984 -10.42,6.062 -1.39,2.078 -1.39,2.188 -1.39,4.172"
         style="fill:#000000;fill-opacity:1;fill-rule:nonzero;stroke:none"
         id="path176" /><path
         d="m 4302.59,702.984 v 10.922 l -13.81,-1.093 v -3.079 c 6.95,0 7.75,-0.687 7.75,-5.562 v -26.625 c 0,-4.469 -1.09,-4.469 -7.75,-4.469 V 670 c 3.88,0.094 8.55,0.297 11.33,0.297 3.97,0 8.64,0 12.61,-0.297 v 3.078 h -2.08 c -7.36,0 -7.55,1.094 -7.55,4.672 v 15.297 c 0,9.828 4.18,18.672 11.72,18.672 0.69,0 0.89,0 1.1,-0.094 -0.3,-0.109 -2.3,-1.297 -2.3,-3.875 0,-2.781 2.09,-4.266 4.28,-4.266 1.78,0 4.27,1.188 4.27,4.36 0,3.187 -3.08,6.062 -7.35,6.062 -7.25,0 -10.83,-6.656 -12.22,-10.922"
         style="fill:#000000;fill-opacity:1;fill-rule:nonzero;stroke:none"
         id="path178" /><path
         d="m 4336.13,695.031 c 0.59,14.797 8.93,17.282 12.31,17.282 10.23,0 11.23,-13.407 11.23,-17.282 z m -0.1,-2.078 h 27.7 c 2.19,0 2.49,0 2.49,2.078 0,9.844 -5.36,19.469 -17.78,19.469 -11.52,0 -20.66,-10.234 -20.66,-22.641 0,-13.312 10.44,-22.953 21.86,-22.953 12.11,0 16.58,11.032 16.58,12.922 0,0.985 -0.78,1.188 -1.28,1.188 -0.89,0 -1.1,-0.594 -1.3,-1.391 -3.47,-10.234 -12.42,-10.234 -13.41,-10.234 -4.96,0 -8.93,2.984 -11.23,6.656 -2.97,4.766 -2.97,11.328 -2.97,14.906"
         style="fill:#000000;fill-opacity:1;fill-rule:nonzero;stroke:none"
         id="path180" /><path
         d="m 4387.39,712.813 v 11.531 c 0,8.734 4.77,13.5 9.13,13.5 0.31,0 1.79,0 3.28,-0.688 -1.19,-0.406 -2.97,-1.687 -2.97,-4.172 0,-2.296 1.58,-4.281 4.26,-4.281 2.88,0 4.38,1.985 4.38,4.375 0,3.672 -3.69,6.953 -8.95,6.953 -6.96,0 -15.39,-5.265 -15.39,-15.797 v -11.421 h -7.85 v -3.079 h 7.85 v -32.187 c 0,-4.469 -1.1,-4.469 -7.75,-4.469 V 670 c 3.87,0.094 8.54,0.297 11.32,0.297 3.97,0 8.64,0 12.61,-0.297 v 3.078 h -2.08 c -7.35,0 -7.54,1.094 -7.54,4.672 v 31.984 H 4399 v 3.079 h -11.61"
         style="fill:#000000;fill-opacity:1;fill-rule:nonzero;stroke:none"
         id="path182" /><path
         d="m 4411.13,695.031 c 0.59,14.797 8.93,17.282 12.31,17.282 10.23,0 11.23,-13.407 11.23,-17.282 z m -0.1,-2.078 h 27.7 c 2.19,0 2.49,0 2.49,2.078 0,9.844 -5.36,19.469 -17.78,19.469 -11.52,0 -20.66,-10.234 -20.66,-22.641 0,-13.312 10.44,-22.953 21.86,-22.953 12.11,0 16.58,11.032 16.58,12.922 0,0.985 -0.78,1.188 -1.28,1.188 -0.89,0 -1.1,-0.594 -1.3,-1.391 -3.47,-10.234 -12.42,-10.234 -13.41,-10.234 -4.96,0 -8.93,2.984 -11.23,6.656 -2.97,4.766 -2.97,11.328 -2.97,14.906"
         style="fill:#000000;fill-opacity:1;fill-rule:nonzero;stroke:none"
         id="path184" /><path
         d="m 4460.59,702.984 v 10.922 l -13.81,-1.093 v -3.079 c 6.95,0 7.75,-0.687 7.75,-5.562 v -26.625 c 0,-4.469 -1.09,-4.469 -7.75,-4.469 V 670 c 3.88,0.094 8.55,0.297 11.33,0.297 3.97,0 8.64,0 12.61,-0.297 v 3.078 h -2.08 c -7.36,0 -7.55,1.094 -7.55,4.672 v 15.297 c 0,9.828 4.18,18.672 11.72,18.672 0.69,0 0.89,0 1.1,-0.094 -0.3,-0.109 -2.3,-1.297 -2.3,-3.875 0,-2.781 2.09,-4.266 4.28,-4.266 1.78,0 4.27,1.188 4.27,4.36 0,3.187 -3.08,6.062 -7.35,6.062 -7.25,0 -10.83,-6.656 -12.22,-10.922"
         style="fill:#000000;fill-opacity:1;fill-rule:nonzero;stroke:none"
         id="path186" /><path
         d="m 4494.13,695.031 c 0.59,14.797 8.93,17.282 12.31,17.282 10.23,0 11.23,-13.407 11.23,-17.282 z m -0.1,-2.078 h 27.7 c 2.19,0 2.49,0 2.49,2.078 0,9.844 -5.36,19.469 -17.78,19.469 -11.52,0 -20.66,-10.234 -20.66,-22.641 0,-13.312 10.44,-22.953 21.86,-22.953 12.11,0 16.58,11.032 16.58,12.922 0,0.985 -0.78,1.188 -1.28,1.188 -0.89,0 -1.1,-0.594 -1.3,-1.391 -3.47,-10.234 -12.42,-10.234 -13.41,-10.234 -4.96,0 -8.93,2.984 -11.23,6.656 -2.97,4.766 -2.97,11.328 -2.97,14.906"
         style="fill:#000000;fill-opacity:1;fill-rule:nonzero;stroke:none"
         id="path188" /><path
         d="m 4538.92,704.172 v -26.625 c 0,-4.469 -1.09,-4.469 -7.75,-4.469 V 670 c 3.49,0.094 8.55,0.297 11.24,0.297 2.57,0 7.75,-0.203 11.12,-0.297 v 3.078 c -6.65,0 -7.75,0 -7.75,4.469 v 18.281 c 0,10.328 7.05,15.891 13.41,15.891 6.26,0 7.36,-5.36 7.36,-11.031 v -23.141 c 0,-4.469 -1.1,-4.469 -7.75,-4.469 V 670 c 3.47,0.094 8.54,0.297 11.22,0.297 2.59,0 7.75,-0.203 11.12,-0.297 v 3.078 c -5.16,0 -7.64,0 -7.75,2.985 v 18.968 c 0,8.547 0,11.625 -3.08,15.203 -1.39,1.688 -4.65,3.672 -10.42,3.672 -7.25,0 -11.92,-4.265 -14.7,-10.422 v 10.422 l -14.02,-1.093 v -3.079 c 6.96,0 7.75,-0.687 7.75,-5.562"
         style="fill:#000000;fill-opacity:1;fill-rule:nonzero;stroke:none"
         id="path190" /><path
         d="m 4594.63,691.656 c 0,16.188 8.14,20.36 13.4,20.36 0.89,0 7.16,-0.094 10.63,-3.672 -4.07,-0.297 -4.66,-3.281 -4.66,-4.563 0,-2.593 1.78,-4.578 4.56,-4.578 2.58,0 4.57,1.688 4.57,4.672 0,6.75 -7.55,10.625 -15.19,10.625 -12.42,0 -21.56,-10.719 -21.56,-23.047 0,-12.719 9.84,-22.547 21.35,-22.547 13.32,0 16.49,11.922 16.49,12.922 0,0.985 -0.99,0.985 -1.28,0.985 -0.89,0 -1.1,-0.391 -1.3,-0.985 -2.87,-9.25 -9.34,-10.437 -13.01,-10.437 -5.27,0 -14,4.265 -14,20.265"
         style="fill:#000000;fill-opacity:1;fill-rule:nonzero;stroke:none"
         id="path192" /><path
         d="m 4638.13,695.031 c 0.59,14.797 8.93,17.282 12.31,17.282 10.23,0 11.23,-13.407 11.23,-17.282 z m -0.1,-2.078 h 27.7 c 2.19,0 2.49,0 2.49,2.078 0,9.844 -5.36,19.469 -17.78,19.469 -11.52,0 -20.66,-10.234 -20.66,-22.641 0,-13.312 10.44,-22.953 21.86,-22.953 12.11,0 16.58,11.032 16.58,12.922 0,0.985 -0.78,1.188 -1.28,1.188 -0.89,0 -1.1,-0.594 -1.3,-1.391 -3.47,-10.234 -12.42,-10.234 -13.41,-10.234 -4.96,0 -8.93,2.984 -11.23,6.656 -2.97,4.766 -2.97,11.328 -2.97,14.906"
         style="fill:#000000;fill-opacity:1;fill-rule:nonzero;stroke:none"
         id="path194" /><path
         d="m 4703.42,723.844 c -0.34,4.078 -2.73,21.156 -14.2,21.156 -4.14,0 -7.74,-2.25 -9.7,-4.078 -4.29,-3.859 -5.13,-8.359 -5.13,-8.578 0,-0.844 0.91,-0.844 1.13,-0.844 0.9,0 0.98,0.141 1.32,1.203 1.49,4.141 6.69,6.672 11.39,6.672 11.33,0 12.8,-11.312 12.8,-18.484 0,-3.516 -0.2,-4.297 -0.48,-5.063 -1.63,-5.265 -3.74,-13.078 -3.74,-15.187 0,-0.766 0.28,-1.688 1.21,-1.688 0.48,0 1.26,0 2.39,3.656 0.84,2.75 2.17,7.954 2.73,13 0.28,2.469 4.22,11.954 5.7,15.329 0.99,2.187 2.46,5.484 5.77,11.609 0.2,0.344 0.34,0.625 0.34,0.906 0,0.844 -0.9,0.844 -1.12,0.844 -0.2,0 -0.85,0 -1.05,-0.344 -0.84,-1.484 -6.19,-11.531 -9.36,-20.109"
         style="fill:#000000;fill-opacity:1;fill-rule:nonzero;stroke:none"
         id="path196" /><path
         d="m 3928.63,1395.66 c 0,16.18 8.14,20.36 13.4,20.36 0.89,0 7.16,-0.1 10.63,-3.68 -4.07,-0.29 -4.66,-3.28 -4.66,-4.56 0,-2.59 1.78,-4.58 4.56,-4.58 2.58,0 4.57,1.69 4.57,4.68 0,6.75 -7.55,10.62 -15.19,10.62 -12.42,0 -21.56,-10.72 -21.56,-23.05 0,-12.72 9.84,-22.54 21.35,-22.54 13.32,0 16.49,11.92 16.49,12.92 0,0.98 -0.99,0.98 -1.28,0.98 -0.89,0 -1.1,-0.39 -1.3,-0.98 -2.87,-9.25 -9.34,-10.44 -13.01,-10.44 -5.27,0 -14,4.27 -14,20.27"
         style="fill:#000000;fill-opacity:1;fill-rule:nonzero;stroke:none"
         id="path198" /><path
         d="m 3994.08,1381.55 c 0.4,-3.97 3.08,-8.14 7.75,-8.14 2.08,0 8.14,1.39 8.14,9.43 v 5.57 h -2.49 v -5.57 c 0,-5.76 -2.48,-6.36 -3.57,-6.36 -3.27,0 -3.68,4.47 -3.68,4.97 v 19.86 c 0,4.17 0,8.05 -3.57,11.74 -3.88,3.86 -8.83,5.45 -13.61,5.45 -8.14,0 -15,-4.67 -15,-11.22 0,-2.98 2,-4.67 4.58,-4.67 2.78,0 4.56,1.98 4.56,4.56 0,1.21 -0.5,4.49 -5.06,4.58 2.68,3.47 7.54,4.56 10.73,4.56 4.86,0 10.53,-3.87 10.53,-12.7 v -3.69 c -5.08,-0.29 -12.03,-0.59 -18.28,-3.58 -7.45,-3.37 -9.94,-8.53 -9.94,-12.9 0,-8.05 9.64,-10.53 15.89,-10.53 6.57,0 11.13,3.97 13.02,8.64 z m -0.69,16.29 v -9.93 c 0,-9.44 -7.16,-12.82 -11.62,-12.82 -4.88,0 -8.94,3.47 -8.94,8.44 0,5.47 4.17,13.72 20.56,14.31"
         style="fill:#000000;fill-opacity:1;fill-rule:nonzero;stroke:none"
         id="path200" /><path
         d="m 4028.09,1411.34 v 6.57 l -14.31,-1.1 v -3.08 c 7.05,0 7.75,-0.59 7.75,-4.96 v -46.49 c 0,-4.47 -1.09,-4.47 -7.75,-4.47 v -3.08 c 3.38,0.1 8.55,0.3 11.13,0.3 2.68,0 7.75,-0.2 11.22,-0.3 v 3.08 c -6.65,0 -7.74,0 -7.74,4.47 v 16.69 0.89 c 0.49,-1.59 4.66,-6.95 12.22,-6.95 11.81,0 22.14,9.73 22.14,22.54 0,12.63 -9.62,22.46 -20.75,22.46 -7.75,0 -11.92,-4.38 -13.91,-6.57 z m 0.3,-26.01 v 22.15 c 2.88,5.07 7.74,7.94 12.81,7.94 7.25,0 13.32,-8.73 13.32,-19.97 0,-12.01 -6.96,-20.36 -14.32,-20.36 -3.97,0 -7.75,1.99 -10.42,6.07 -1.39,2.07 -1.39,2.18 -1.39,4.17"
         style="fill:#000000;fill-opacity:1;fill-rule:nonzero;stroke:none"
         id="path202" /><path
         d="m 4099.08,1381.55 c 0.4,-3.97 3.08,-8.14 7.75,-8.14 2.08,0 8.14,1.39 8.14,9.43 v 5.57 h -2.49 v -5.57 c 0,-5.76 -2.48,-6.36 -3.57,-6.36 -3.27,0 -3.68,4.47 -3.68,4.97 v 19.86 c 0,4.17 0,8.05 -3.57,11.74 -3.88,3.86 -8.83,5.45 -13.61,5.45 -8.14,0 -15,-4.67 -15,-11.22 0,-2.98 2,-4.67 4.58,-4.67 2.78,0 4.56,1.98 4.56,4.56 0,1.21 -0.5,4.49 -5.06,4.58 2.68,3.47 7.54,4.56 10.73,4.56 4.86,0 10.53,-3.87 10.53,-12.7 v -3.69 c -5.08,-0.29 -12.03,-0.59 -18.28,-3.58 -7.45,-3.37 -9.94,-8.53 -9.94,-12.9 0,-8.05 9.64,-10.53 15.89,-10.53 6.57,0 11.13,3.97 13.02,8.64 z m -0.69,16.29 v -9.93 c 0,-9.44 -7.16,-12.82 -11.62,-12.82 -4.88,0 -8.94,3.47 -8.94,8.44 0,5.47 4.17,13.72 20.56,14.31"
         style="fill:#000000;fill-opacity:1;fill-rule:nonzero;stroke:none"
         id="path204" /><path
         d="m 4127.63,1395.66 c 0,16.18 8.14,20.36 13.4,20.36 0.89,0 7.16,-0.1 10.63,-3.68 -4.07,-0.29 -4.66,-3.28 -4.66,-4.56 0,-2.59 1.78,-4.58 4.56,-4.58 2.58,0 4.57,1.69 4.57,4.68 0,6.75 -7.55,10.62 -15.19,10.62 -12.42,0 -21.56,-10.72 -21.56,-23.05 0,-12.72 9.84,-22.54 21.35,-22.54 13.32,0 16.49,11.92 16.49,12.92 0,0.98 -0.99,0.98 -1.28,0.98 -0.89,0 -1.1,-0.39 -1.3,-0.98 -2.87,-9.25 -9.34,-10.44 -13.01,-10.44 -5.27,0 -14,4.27 -14,20.27"
         style="fill:#000000;fill-opacity:1;fill-rule:nonzero;stroke:none"
         id="path206" /><path
         d="m 4177.58,1417.91 -13.91,-1.1 v -3.08 c 6.46,0 7.36,-0.59 7.36,-5.46 v -26.72 c 0,-4.47 -1.09,-4.47 -7.75,-4.47 V 1374 c 3.17,0.09 8.55,0.3 10.92,0.3 3.49,0 6.96,-0.21 10.33,-0.3 v 3.08 c -6.55,0 -6.95,0.5 -6.95,4.37 z m 0.4,17.28 c 0,3.19 -2.48,5.26 -5.26,5.26 -3.08,0 -5.27,-2.67 -5.27,-5.26 0,-2.67 2.19,-5.27 5.27,-5.27 2.78,0 5.26,2.1 5.26,5.27"
         style="fill:#000000;fill-opacity:1;fill-rule:nonzero;stroke:none"
         id="path208" /><path
         d="m 4205.19,1413.73 h 14.2 v 3.08 h -14.2 v 18.28 h -2.49 c -0.09,-8.14 -3.07,-18.78 -12.81,-19.17 v -2.19 h 8.44 v -27.42 c 0,-12.22 9.23,-13.4 12.81,-13.4 7.06,0 9.84,7.04 9.84,13.4 v 5.67 h -2.48 v -5.46 c 0,-7.35 -2.98,-11.13 -6.66,-11.13 -6.65,0 -6.65,9.05 -6.65,10.74 v 27.6"
         style="fill:#000000;fill-opacity:1;fill-rule:nonzero;stroke:none"
         id="path210" /><path
         d="m 4265.22,1407.38 c 2.59,6.26 7.66,6.35 9.25,6.35 v 3.08 c -2.3,-0.2 -5.17,-0.29 -7.45,-0.29 -1.8,0 -6.46,0.2 -8.64,0.29 v -3.08 c 3.07,-0.09 4.67,-1.78 4.67,-4.26 0,-1 -0.11,-1.2 -0.61,-2.39 l -10.03,-24.44 -11.02,26.72 c -0.41,1 -0.61,1.39 -0.61,1.8 0,2.57 3.69,2.57 5.56,2.57 v 3.08 c -2.57,-0.09 -9.12,-0.29 -10.82,-0.29 -2.68,0 -6.64,0.09 -9.63,0.29 v -3.08 c 4.77,0 6.66,0 8.05,-3.46 l 14.89,-36.27 c -0.49,-1.3 -1.88,-4.56 -2.49,-5.86 -2.17,-5.47 -4.95,-12.31 -11.31,-12.31 -0.5,0 -2.78,0 -4.67,1.78 3.08,0.39 3.87,2.58 3.87,4.17 0,2.58 -1.89,4.17 -4.17,4.17 -1.98,0 -4.17,-1.29 -4.17,-4.26 0,-4.47 4.17,-8.05 9.14,-8.05 6.25,0 10.33,5.66 12.7,11.31 l 17.49,42.43"
         style="fill:#000000;fill-opacity:1;fill-rule:nonzero;stroke:none"
         id="path212" /><path
         d="m 4372.25,1406.48 c 1.48,0 3.38,0 3.38,1.99 0,1.98 -1.9,1.98 -3.29,1.98 h -59.5 c -1.39,0 -3.28,0 -3.28,-1.98 0,-1.99 1.89,-1.99 3.38,-1.99 z m 0.09,-19.26 c 1.39,0 3.29,0 3.29,1.98 0,1.99 -1.9,1.99 -3.38,1.99 h -59.31 c -1.49,0 -3.38,0 -3.38,-1.99 0,-1.98 1.89,-1.98 3.28,-1.98 h 59.5"
         style="fill:#000000;fill-opacity:1;fill-rule:nonzero;stroke:none"
         id="path214" /><path
         d="m 4461.56,1387.22 h 22.25 c 1.39,0 3.27,0 3.27,1.98 0,1.99 -1.88,1.99 -3.38,1.99 h -20.95 l 3.97,15.29 h 16.98 c 1.5,0 3.38,0 3.38,1.99 0,1.98 -1.88,1.98 -3.27,1.98 h -15.9 l 7.75,28.72 c 0.11,0.19 0.4,1.39 0.4,1.78 0,1.1 -0.89,1.99 -1.98,1.99 -1.6,0 -1.89,-1.28 -2.19,-2.38 l -8.05,-30.11 h -18.67 l 7.74,28.72 c 0.11,0.19 0.4,1.39 0.4,1.78 0,1.1 -0.89,1.99 -1.98,1.99 -1.6,0 -1.89,-1.28 -2.19,-2.38 l -8.05,-30.11 h -22.25 c -1.39,0 -3.28,0 -3.28,-1.98 0,-1.99 1.89,-1.99 3.38,-1.99 h 20.97 l -3.99,-15.29 h -16.98 c -1.49,0 -3.38,0 -3.38,-1.99 0,-1.98 1.89,-1.98 3.28,-1.98 h 15.89 l -7.75,-28.72 c -0.09,-0.19 -0.39,-1.39 -0.39,-1.78 0,-1.09 0.89,-1.99 1.99,-1.99 1.59,0 1.89,1.29 2.19,2.38 l 8.04,30.11 h 18.67 l -7.75,-28.72 c -0.09,-0.19 -0.39,-1.39 -0.39,-1.78 0,-1.09 0.89,-1.99 1.99,-1.99 1.58,0 1.89,1.29 2.19,2.38 z m -21.56,3.97 3.97,15.29 h 18.69 l -3.99,-15.29 H 4440"
         style="fill:#000000;fill-opacity:1;fill-rule:nonzero;stroke:none"
         id="path216" /><path
         d="m 4504.63,1395.66 c 0,16.18 8.14,20.36 13.4,20.36 0.89,0 7.16,-0.1 10.63,-3.68 -4.07,-0.29 -4.66,-3.28 -4.66,-4.56 0,-2.59 1.78,-4.58 4.56,-4.58 2.58,0 4.57,1.69 4.57,4.68 0,6.75 -7.55,10.62 -15.19,10.62 -12.42,0 -21.56,-10.72 -21.56,-23.05 0,-12.72 9.84,-22.54 21.35,-22.54 13.32,0 16.49,11.92 16.49,12.92 0,0.98 -0.99,0.98 -1.28,0.98 -0.89,0 -1.1,-0.39 -1.3,-0.98 -2.87,-9.25 -9.34,-10.44 -13.01,-10.44 -5.27,0 -14,4.27 -14,20.27"
         style="fill:#000000;fill-opacity:1;fill-rule:nonzero;stroke:none"
         id="path218" /><path
         d="m 4544.92,1381.55 c 0,-4.47 -1.09,-4.47 -7.75,-4.47 V 1374 c 3.49,0.09 8.55,0.3 11.24,0.3 2.57,0 7.75,-0.21 11.12,-0.3 v 3.08 c -6.65,0 -7.75,0 -7.75,4.47 v 18.28 c 0,10.33 7.05,15.89 13.41,15.89 6.26,0 7.36,-5.36 7.36,-11.03 v -23.14 c 0,-4.47 -1.1,-4.47 -7.75,-4.47 V 1374 c 3.47,0.09 8.54,0.3 11.22,0.3 2.59,0 7.75,-0.21 11.12,-0.3 v 3.08 c -5.16,0 -7.64,0 -7.75,2.98 v 18.97 c 0,8.55 0,11.63 -3.08,15.2 -1.39,1.69 -4.65,3.68 -10.42,3.68 -8.34,0 -12.72,-5.96 -14.41,-9.74 v 34.77 l -14.31,-1.1 v -3.07 c 6.96,0 7.75,-0.69 7.75,-5.57 v -51.65"
         style="fill:#000000;fill-opacity:1;fill-rule:nonzero;stroke:none"
         id="path220" /><path
         d="m 4635.78,1395.27 c 0,12.7 -9.92,23.23 -21.95,23.23 -12.41,0 -22.05,-10.83 -22.05,-23.23 0,-12.83 10.33,-22.36 21.95,-22.36 12.02,0 22.05,9.73 22.05,22.36 z m -21.95,-19.88 c -4.27,0 -8.64,2.09 -11.31,6.66 -2.49,4.37 -2.49,10.43 -2.49,14 0,3.87 0,9.25 2.38,13.61 2.68,4.57 7.36,6.65 11.32,6.65 4.38,0 8.65,-2.18 11.22,-6.45 2.6,-4.27 2.6,-10.03 2.6,-13.81 0,-3.57 0,-8.94 -2.19,-13.32 -2.19,-4.46 -6.56,-7.34 -11.53,-7.34"
         style="fill:#000000;fill-opacity:1;fill-rule:nonzero;stroke:none"
         id="path222" /><path
         d="m 4688.78,1395.27 c 0,12.7 -9.92,23.23 -21.95,23.23 -12.41,0 -22.05,-10.83 -22.05,-23.23 0,-12.83 10.33,-22.36 21.95,-22.36 12.02,0 22.05,9.73 22.05,22.36 z m -21.95,-19.88 c -4.27,0 -8.64,2.09 -11.31,6.66 -2.49,4.37 -2.49,10.43 -2.49,14 0,3.87 0,9.25 2.38,13.61 2.68,4.57 7.36,6.65 11.32,6.65 4.38,0 8.65,-2.18 11.22,-6.45 2.6,-4.27 2.6,-10.03 2.6,-13.81 0,-3.57 0,-8.94 -2.19,-13.32 -2.19,-4.46 -6.56,-7.34 -11.53,-7.34"
         style="fill:#000000;fill-opacity:1;fill-rule:nonzero;stroke:none"
         id="path224" /><path
         d="m 4712.66,1393.27 c 2.18,-0.39 10.34,-1.99 10.34,-9.14 0,-5.07 -3.48,-9.04 -11.23,-9.04 -8.35,0 -11.93,5.66 -13.82,14.11 -0.29,1.28 -0.39,1.69 -1.39,1.69 -1.28,0 -1.28,-0.7 -1.28,-2.48 v -13.11 c 0,-1.69 0,-2.39 1.1,-2.39 0.5,0 0.59,0.09 2.48,1.98 0.19,0.2 0.19,0.41 1.98,2.28 4.38,-4.17 8.85,-4.26 10.93,-4.26 11.42,0 16,6.65 16,13.81 0,5.26 -2.99,8.23 -4.18,9.44 -3.28,3.17 -7.15,3.97 -11.32,4.76 -5.57,1.1 -12.22,2.38 -12.22,8.14 0,3.49 2.58,7.55 11.12,7.55 10.92,0 11.42,-8.94 11.63,-12.02 0.09,-0.89 0.98,-0.89 1.18,-0.89 1.3,0 1.3,0.5 1.3,2.38 v 10.05 c 0,1.68 0,2.37 -1.09,2.37 -0.5,0 -0.71,0 -1.99,-1.19 -0.29,-0.4 -1.29,-1.29 -1.68,-1.59 -3.79,2.78 -7.86,2.78 -9.35,2.78 -12.12,0 -15.89,-6.66 -15.89,-12.22 0,-3.47 1.6,-6.25 4.27,-8.44 3.18,-2.57 5.97,-3.18 13.11,-4.57"
         style="fill:#000000;fill-opacity:1;fill-rule:nonzero;stroke:none"
         id="path226" /><path
         d="m 4742.13,1399.03 c 0.59,14.8 8.93,17.28 12.31,17.28 10.23,0 11.23,-13.4 11.23,-17.28 z m -0.1,-2.08 h 27.7 c 2.19,0 2.49,0 2.49,2.08 0,9.85 -5.36,19.47 -17.78,19.47 -11.52,0 -20.66,-10.23 -20.66,-22.64 0,-13.31 10.44,-22.95 21.86,-22.95 12.11,0 16.58,11.03 16.58,12.92 0,0.98 -0.78,1.19 -1.28,1.19 -0.89,0 -1.1,-0.6 -1.3,-1.39 -3.47,-10.24 -12.42,-10.24 -13.41,-10.24 -4.96,0 -8.93,2.99 -11.23,6.66 -2.97,4.76 -2.97,11.33 -2.97,14.9"
         style="fill:#000000;fill-opacity:1;fill-rule:nonzero;stroke:none"
         id="path228" /><path
         d="m 4791.59,1406.98 v 10.93 l -13.81,-1.1 v -3.08 c 6.95,0 7.75,-0.68 7.75,-5.56 v -26.62 c 0,-4.47 -1.09,-4.47 -7.75,-4.47 V 1374 c 3.88,0.09 8.55,0.3 11.33,0.3 3.97,0 8.64,0 12.61,-0.3 v 3.08 h -2.08 c -7.36,0 -7.55,1.09 -7.55,4.67 v 15.3 c 0,9.83 4.18,18.67 11.72,18.67 0.69,0 0.89,0 1.1,-0.09 -0.3,-0.11 -2.3,-1.3 -2.3,-3.88 0,-2.78 2.09,-4.27 4.28,-4.27 1.78,0 4.27,1.19 4.27,4.36 0,3.19 -3.08,6.07 -7.35,6.07 -7.25,0 -10.83,-6.66 -12.22,-10.93"
         style="fill:#000000;fill-opacity:1;fill-rule:nonzero;stroke:none"
         id="path230" /><path
         d="m 4834.66,1393.27 c 2.18,-0.39 10.34,-1.99 10.34,-9.14 0,-5.07 -3.48,-9.04 -11.23,-9.04 -8.35,0 -11.93,5.66 -13.82,14.11 -0.29,1.28 -0.39,1.69 -1.39,1.69 -1.28,0 -1.28,-0.7 -1.28,-2.48 v -13.11 c 0,-1.69 0,-2.39 1.1,-2.39 0.5,0 0.59,0.09 2.48,1.98 0.19,0.2 0.19,0.41 1.98,2.28 4.38,-4.17 8.85,-4.26 10.93,-4.26 11.42,0 16,6.65 16,13.81 0,5.26 -2.99,8.23 -4.18,9.44 -3.28,3.17 -7.15,3.97 -11.32,4.76 -5.57,1.1 -12.22,2.38 -12.22,8.14 0,3.49 2.58,7.55 11.12,7.55 10.92,0 11.42,-8.94 11.63,-12.02 0.09,-0.89 0.98,-0.89 1.18,-0.89 1.3,0 1.3,0.5 1.3,2.38 v 10.05 c 0,1.68 0,2.37 -1.09,2.37 -0.5,0 -0.71,0 -1.99,-1.19 -0.29,-0.4 -1.29,-1.29 -1.68,-1.59 -3.79,2.78 -7.86,2.78 -9.35,2.78 -12.12,0 -15.89,-6.66 -15.89,-12.22 0,-3.47 1.6,-6.25 4.27,-8.44 3.18,-2.57 5.97,-3.18 13.11,-4.57"
         style="fill:#000000;fill-opacity:1;fill-rule:nonzero;stroke:none"
         id="path232" /><path
         d="m 4941.47,1396.84 c 1.69,0 3.47,0 3.47,1.99 0,2 -1.78,2 -3.47,2 h -53.75 c -1.69,0 -3.47,0 -3.47,-2 0,-1.99 1.78,-1.99 3.47,-1.99 h 53.75"
         style="fill:#000000;fill-opacity:1;fill-rule:nonzero;stroke:none"
         id="path234" /><path
         d="m 4985.92,1408.17 v -26.62 c 0,-4.47 -1.09,-4.47 -7.75,-4.47 V 1374 c 3.49,0.09 8.55,0.3 11.24,0.3 2.57,0 7.75,-0.21 11.12,-0.3 v 3.08 c -6.65,0 -7.75,0 -7.75,4.47 v 18.28 c 0,10.33 7.05,15.89 13.41,15.89 6.26,0 7.36,-5.36 7.36,-11.03 v -23.14 c 0,-4.47 -1.1,-4.47 -7.75,-4.47 V 1374 c 3.47,0.09 8.54,0.3 11.22,0.3 2.59,0 7.75,-0.21 11.12,-0.3 v 3.08 c -6.66,0 -7.75,0 -7.75,4.47 v 18.28 c 0,10.33 7.06,15.89 13.42,15.89 6.25,0 7.35,-5.36 7.35,-11.03 v -23.14 c 0,-4.47 -1.1,-4.47 -7.75,-4.47 V 1374 c 3.48,0.09 8.54,0.3 11.23,0.3 2.58,0 7.75,-0.21 11.13,-0.3 v 3.08 c -5.18,0 -7.66,0 -7.75,2.98 v 18.97 c 0,8.55 0,11.63 -3.08,15.2 -1.39,1.69 -4.67,3.68 -10.44,3.68 -8.34,0 -12.72,-5.96 -14.41,-9.74 -1.39,8.64 -8.73,9.74 -13.2,9.74 -7.25,0 -11.92,-4.27 -14.7,-10.43 v 10.43 l -14.02,-1.1 v -3.08 c 6.96,0 7.75,-0.68 7.75,-5.56"
         style="fill:#000000;fill-opacity:1;fill-rule:nonzero;stroke:none"
         id="path236" /><path
         d="m 5075.58,1417.91 -13.91,-1.1 v -3.08 c 6.46,0 7.36,-0.59 7.36,-5.46 v -26.72 c 0,-4.47 -1.09,-4.47 -7.75,-4.47 V 1374 c 3.17,0.09 8.55,0.3 10.92,0.3 3.49,0 6.96,-0.21 10.33,-0.3 v 3.08 c -6.55,0 -6.95,0.5 -6.95,4.37 z m 0.4,17.28 c 0,3.19 -2.48,5.26 -5.26,5.26 -3.08,0 -5.27,-2.67 -5.27,-5.26 0,-2.67 2.19,-5.27 5.27,-5.27 2.78,0 5.26,2.1 5.26,5.27"
         style="fill:#000000;fill-opacity:1;fill-rule:nonzero;stroke:none"
         id="path238" /><path
         d="m 5096.92,1408.17 v -26.62 c 0,-4.47 -1.09,-4.47 -7.75,-4.47 V 1374 c 3.49,0.09 8.55,0.3 11.24,0.3 2.57,0 7.75,-0.21 11.12,-0.3 v 3.08 c -6.65,0 -7.75,0 -7.75,4.47 v 18.28 c 0,10.33 7.05,15.89 13.41,15.89 6.26,0 7.36,-5.36 7.36,-11.03 v -23.14 c 0,-4.47 -1.1,-4.47 -7.75,-4.47 V 1374 c 3.47,0.09 8.54,0.3 11.22,0.3 2.59,0 7.75,-0.21 11.12,-0.3 v 3.08 c -5.16,0 -7.64,0 -7.75,2.98 v 18.97 c 0,8.55 0,11.63 -3.08,15.2 -1.39,1.69 -4.65,3.68 -10.42,3.68 -7.25,0 -11.92,-4.27 -14.7,-10.43 v 10.43 l -14.02,-1.1 v -3.08 c 6.96,0 7.75,-0.68 7.75,-5.56"
         style="fill:#000000;fill-opacity:1;fill-rule:nonzero;stroke:none"
         id="path240" /><path
         d="m 3928.63,1275.66 c 0,16.18 8.14,20.36 13.4,20.36 0.89,0 7.16,-0.1 10.63,-3.68 -4.07,-0.29 -4.66,-3.28 -4.66,-4.56 0,-2.59 1.78,-4.58 4.56,-4.58 2.58,0 4.57,1.69 4.57,4.68 0,6.75 -7.55,10.62 -15.19,10.62 -12.42,0 -21.56,-10.72 -21.56,-23.05 0,-12.72 9.84,-22.54 21.35,-22.54 13.32,0 16.49,11.92 16.49,12.92 0,0.98 -0.99,0.98 -1.28,0.98 -0.89,0 -1.1,-0.39 -1.3,-0.98 -2.87,-9.25 -9.34,-10.44 -13.01,-10.44 -5.27,0 -14,4.27 -14,20.27"
         style="fill:#000000;fill-opacity:1;fill-rule:nonzero;stroke:none"
         id="path242" /><path
         d="m 4007.78,1275.27 c 0,12.7 -9.92,23.23 -21.95,23.23 -12.41,0 -22.05,-10.83 -22.05,-23.23 0,-12.83 10.33,-22.36 21.95,-22.36 12.02,0 22.05,9.73 22.05,22.36 z m -21.95,-19.88 c -4.27,0 -8.64,2.09 -11.31,6.66 -2.49,4.37 -2.49,10.43 -2.49,14 0,3.87 0,9.25 2.38,13.61 2.68,4.57 7.36,6.65 11.32,6.65 4.38,0 8.65,-2.18 11.22,-6.45 2.6,-4.27 2.6,-10.03 2.6,-13.81 0,-3.57 0,-8.94 -2.19,-13.32 -2.19,-4.46 -6.56,-7.34 -11.53,-7.34"
         style="fill:#000000;fill-opacity:1;fill-rule:nonzero;stroke:none"
         id="path244" /><path
         d="m 4031.66,1273.27 c 2.18,-0.39 10.34,-1.99 10.34,-9.14 0,-5.07 -3.48,-9.04 -11.23,-9.04 -8.35,0 -11.93,5.66 -13.82,14.11 -0.29,1.28 -0.39,1.69 -1.39,1.69 -1.28,0 -1.28,-0.7 -1.28,-2.48 v -13.11 c 0,-1.69 0,-2.39 1.1,-2.39 0.5,0 0.59,0.09 2.48,1.98 0.19,0.2 0.19,0.41 1.98,2.28 4.38,-4.17 8.85,-4.26 10.93,-4.26 11.42,0 16,6.65 16,13.81 0,5.26 -2.99,8.23 -4.18,9.44 -3.28,3.17 -7.15,3.97 -11.32,4.76 -5.57,1.1 -12.22,2.38 -12.22,8.14 0,3.49 2.58,7.55 11.12,7.55 10.92,0 11.42,-8.94 11.63,-12.02 0.09,-0.89 0.98,-0.89 1.18,-0.89 1.3,0 1.3,0.5 1.3,2.38 v 10.05 c 0,1.68 0,2.37 -1.09,2.37 -0.5,0 -0.71,0 -1.99,-1.19 -0.29,-0.4 -1.29,-1.29 -1.68,-1.59 -3.79,2.78 -7.86,2.78 -9.35,2.78 -12.12,0 -15.89,-6.66 -15.89,-12.22 0,-3.47 1.6,-6.25 4.27,-8.44 3.18,-2.57 5.97,-3.18 13.11,-4.57"
         style="fill:#000000;fill-opacity:1;fill-rule:nonzero;stroke:none"
         id="path246" /><path
         d="m 4067.19,1293.73 h 14.2 v 3.08 h -14.2 v 18.28 h -2.49 c -0.09,-8.14 -3.07,-18.78 -12.81,-19.17 v -2.19 h 8.44 v -27.42 c 0,-12.22 9.23,-13.4 12.81,-13.4 7.06,0 9.84,7.04 9.84,13.4 v 5.67 h -2.48 v -5.46 c 0,-7.35 -2.98,-11.13 -6.66,-11.13 -6.65,0 -6.65,9.05 -6.65,10.74 v 27.6"
         style="fill:#000000;fill-opacity:1;fill-rule:nonzero;stroke:none"
         id="path248" /><path
         d="m 4185.25,1286.48 c 1.48,0 3.38,0 3.38,1.99 0,1.98 -1.9,1.98 -3.29,1.98 h -59.5 c -1.39,0 -3.28,0 -3.28,-1.98 0,-1.99 1.89,-1.99 3.38,-1.99 z m 0.09,-19.26 c 1.39,0 3.29,0 3.29,1.98 0,1.99 -1.9,1.99 -3.38,1.99 h -59.31 c -1.49,0 -3.38,0 -3.38,-1.99 0,-1.98 1.89,-1.98 3.28,-1.98 h 59.5"
         style="fill:#000000;fill-opacity:1;fill-rule:nonzero;stroke:none"
         id="path250" /><path
         d="m 4267.69,1285.78 c 0,7.95 -0.49,15.91 -3.97,23.25 -4.56,9.53 -12.72,11.13 -16.89,11.13 -5.95,0 -13.2,-2.58 -17.28,-11.82 -3.17,-6.86 -3.67,-14.61 -3.67,-22.56 0,-7.44 0.39,-16.39 4.46,-23.94 4.27,-8.04 11.54,-10.03 16.39,-10.03 5.36,0 12.93,2.1 17.29,11.53 3.18,6.85 3.67,14.6 3.67,22.44 z M 4246.73,1254 c -3.87,0 -9.73,2.48 -11.51,12.02 -1.09,5.96 -1.09,15.11 -1.09,20.96 0,6.36 0,12.91 0.78,18.29 1.89,11.81 9.34,12.7 11.82,12.7 3.29,0 9.83,-1.78 11.72,-11.63 1,-5.56 1,-13.11 1,-19.36 0,-7.45 0,-14.2 -1.09,-20.56 -1.48,-9.44 -7.16,-12.42 -11.63,-12.42"
         style="fill:#000000;fill-opacity:1;fill-rule:nonzero;stroke:none"
         id="path252" /><path
         d="M 618.914,429.816 983.156,991.801"
         style="fill:none;stroke:#000000;stroke-width:7.9701;stroke-linecap:butt;stroke-linejoin:miter;stroke-miterlimit:10;stroke-dasharray:none;stroke-opacity:1"
         id="path254" /><path
         d="m 957.316,990.031 c 7.223,-3.14 24.754,2.473 27.954,5.032 -1.028,-3.965 1.007,-22.258 6.824,-27.575"
         style="fill:none;stroke:#000000;stroke-width:6.37579;stroke-linecap:round;stroke-linejoin:round;stroke-miterlimit:10;stroke-dasharray:none;stroke-opacity:1"
         id="path256" /><path
         d="M 660.797,383.52 1933.54,1038.08"
         style="fill:none;stroke:#000000;stroke-width:7.9701;stroke-linecap:butt;stroke-linejoin:miter;stroke-miterlimit:10;stroke-dasharray:none;stroke-opacity:1"
         id="path258" /><path
         d="m 1910.25,1049.4 c 4.7,-6.32 22.7,-10.17 26.75,-9.54 -2.86,-2.93 -10.2,-19.81 -7.8,-27.31"
         style="fill:none;stroke:#000000;stroke-width:6.37576;stroke-linecap:round;stroke-linejoin:round;stroke-miterlimit:10;stroke-dasharray:none;stroke-opacity:1"
         id="path260" /><path
         d="M 1352.54,438.109 1100.02,983.527"
         style="fill:none;stroke:#000000;stroke-width:7.9701;stroke-linecap:butt;stroke-linejoin:miter;stroke-miterlimit:10;stroke-dasharray:none;stroke-opacity:1"
         id="path262" /><path
         d="m 1087.75,960.719 c 6.5,4.437 11.1,22.261 10.64,26.332 2.81,-2.981 19.37,-11.012 26.97,-8.922"
         style="fill:none;stroke:#000000;stroke-width:6.37572;stroke-linecap:round;stroke-linejoin:round;stroke-miterlimit:10;stroke-dasharray:none;stroke-opacity:1"
         id="path264" /><path
         d="m 1481.11,421.207 482.64,579.183"
         style="fill:none;stroke:#000000;stroke-width:7.9701;stroke-linecap:butt;stroke-linejoin:miter;stroke-miterlimit:10;stroke-dasharray:none;stroke-opacity:1"
         id="path266" /><path
         d="m 1937.88,1001.72 c 6.8,-3.978 24.87,-0.5 28.35,1.66 -1.49,-3.814 -1.66,-22.22 3.48,-28.189"
         style="fill:none;stroke:#000000;stroke-width:6.37571;stroke-linecap:round;stroke-linejoin:round;stroke-miterlimit:10;stroke-dasharray:none;stroke-opacity:1"
         id="path268" /><path
         d="M 2151.63,393.094 1151.4,1028.53"
         style="fill:none;stroke:#000000;stroke-width:7.9701;stroke-linecap:butt;stroke-linejoin:miter;stroke-miterlimit:10;stroke-dasharray:none;stroke-opacity:1"
         id="path270" /><path
         d="m 1153.41,1002.71 c 3.07,7.25 -2.7,24.73 -5.29,27.9 3.97,-0.99 22.25,1.21 27.51,7.07"
         style="fill:none;stroke:#000000;stroke-width:6.37562;stroke-linecap:round;stroke-linejoin:round;stroke-miterlimit:10;stroke-dasharray:none;stroke-opacity:1"
         id="path272" /><path
         d="M 2221.56,444.906 2073.8,976.738"
         style="fill:none;stroke:#000000;stroke-width:7.9701;stroke-linecap:butt;stroke-linejoin:miter;stroke-miterlimit:10;stroke-dasharray:none;stroke-opacity:1"
         id="path274" /><path
         d="m 2058,956.219 c 7.14,3.328 14.56,20.172 14.77,24.261 2.28,-3.394 17.32,-14.003 25.16,-13.171"
         style="fill:none;stroke:#000000;stroke-width:6.37566;stroke-linecap:round;stroke-linejoin:round;stroke-miterlimit:10;stroke-dasharray:none;stroke-opacity:1"
         id="path276" /><path
         d="M 2990.85,370.387 1162.68,1051.22"
         style="fill:none;stroke:#000000;stroke-width:7.9701;stroke-linecap:butt;stroke-linejoin:miter;stroke-miterlimit:10;stroke-dasharray:none;stroke-opacity:1"
         id="path278" /><path
         d="m 1170.01,1026.38 c 1.5,7.73 -7.79,23.63 -10.97,26.2 4.09,-0.14 21.51,5.81 25.43,12.64"
         style="fill:none;stroke:#000000;stroke-width:6.37557;stroke-linecap:round;stroke-linejoin:round;stroke-miterlimit:10;stroke-dasharray:none;stroke-opacity:1"
         id="path280" /><path
         d="m 3006.09,398.93 -866.38,623.78"
         style="fill:none;stroke:#000000;stroke-width:7.9701;stroke-linecap:butt;stroke-linejoin:miter;stroke-miterlimit:10;stroke-dasharray:none;stroke-opacity:1"
         id="path282" /><path
         d="m 2140.21,996.809 c 3.5,7.061 -1.26,24.851 -3.65,28.171 3.91,-1.22 22.28,-0.09 27.87,5.46"
         style="fill:none;stroke:#000000;stroke-width:6.37574;stroke-linecap:round;stroke-linejoin:round;stroke-miterlimit:10;stroke-dasharray:none;stroke-opacity:1"
         id="path284" /><path
         d="M 1091.85,370.375 2920,1051.21"
         style="fill:none;stroke:#000000;stroke-width:7.9701;stroke-linecap:butt;stroke-linejoin:miter;stroke-miterlimit:10;stroke-dasharray:none;stroke-opacity:1"
         id="path286" /><path
         d="m 2898.2,1065.21 c 3.93,-6.83 21.34,-12.78 25.44,-12.64 -3.19,-2.57 -12.47,-18.46 -10.98,-26.19"
         style="fill:none;stroke:#000000;stroke-width:6.37564;stroke-linecap:round;stroke-linejoin:round;stroke-miterlimit:10;stroke-dasharray:none;stroke-opacity:1"
         id="path288" /><path
         d="m 1931.08,393.078 1000.2,635.442"
         style="fill:none;stroke:#000000;stroke-width:7.9701;stroke-linecap:butt;stroke-linejoin:miter;stroke-miterlimit:10;stroke-dasharray:none;stroke-opacity:1"
         id="path290" /><path
         d="m 2907.05,1037.67 c 5.26,-5.86 23.54,-8.06 27.51,-7.07 -2.59,-3.18 -8.36,-20.65 -5.29,-27.91"
         style="fill:none;stroke:#000000;stroke-width:6.3756;stroke-linecap:round;stroke-linejoin:round;stroke-miterlimit:10;stroke-dasharray:none;stroke-opacity:1"
         id="path292" /><path
         d="M 2730.21,438.086 2982.7,983.508"
         style="fill:none;stroke:#000000;stroke-width:7.9701;stroke-linecap:butt;stroke-linejoin:miter;stroke-miterlimit:10;stroke-dasharray:none;stroke-opacity:1"
         id="path294" /><path
         d="m 2957.36,978.105 c 7.6,-2.085 24.16,5.946 26.97,8.926 -0.46,-4.07 4.13,-21.894 10.64,-26.332"
         style="fill:none;stroke:#000000;stroke-width:6.37579;stroke-linecap:round;stroke-linejoin:round;stroke-miterlimit:10;stroke-dasharray:none;stroke-opacity:1"
         id="path296" /><path
         d="m 3463.82,429.844 -364.27,561.98"
         style="fill:none;stroke:#000000;stroke-width:7.9701;stroke-linecap:butt;stroke-linejoin:miter;stroke-miterlimit:10;stroke-dasharray:none;stroke-opacity:1"
         id="path298" /><path
         d="m 3090.62,967.512 c 5.81,5.312 7.84,23.605 6.82,27.57 3.2,-2.555 20.73,-8.168 27.95,-5.031"
         style="fill:none;stroke:#000000;stroke-width:6.37577;stroke-linecap:round;stroke-linejoin:round;stroke-miterlimit:10;stroke-dasharray:none;stroke-opacity:1"
         id="path300" /><path
         d="m 1128.64,1175.36 338.81,348.48"
         style="fill:none;stroke:#000000;stroke-width:7.9701;stroke-linecap:butt;stroke-linejoin:miter;stroke-miterlimit:10;stroke-dasharray:none;stroke-opacity:1"
         id="path302" /><path
         d="m 1441.75,1527.14 c 6.48,-4.49 24.77,-2.4 28.4,-0.52 -1.78,-3.69 -3.35,-22.03 1.32,-28.37"
         style="fill:none;stroke:#000000;stroke-width:6.37567;stroke-linecap:round;stroke-linejoin:round;stroke-miterlimit:10;stroke-dasharray:none;stroke-opacity:1"
         id="path304" /><path
         d="M 1961.8,1175.39 1623,1523.86"
         style="fill:none;stroke:#000000;stroke-width:7.9701;stroke-linecap:butt;stroke-linejoin:miter;stroke-miterlimit:10;stroke-dasharray:none;stroke-opacity:1"
         id="path306" /><path
         d="m 1618.97,1498.27 c 4.67,6.34 3.1,24.68 1.32,28.37 3.63,-1.88 21.92,-3.97 28.39,0.52"
         style="fill:none;stroke:#000000;stroke-width:6.37576;stroke-linecap:round;stroke-linejoin:round;stroke-miterlimit:10;stroke-dasharray:none;stroke-opacity:1"
         id="path308" /><path
         d="m 2954.07,1175.4 -338.82,348.46"
         style="fill:none;stroke:#000000;stroke-width:7.9701;stroke-linecap:butt;stroke-linejoin:miter;stroke-miterlimit:10;stroke-dasharray:none;stroke-opacity:1"
         id="path310" /><path
         d="m 2611.23,1498.28 c 4.67,6.34 3.1,24.68 1.32,28.37 3.63,-1.88 21.92,-3.97 28.4,0.52"
         style="fill:none;stroke:#000000;stroke-width:6.37567;stroke-linecap:round;stroke-linejoin:round;stroke-miterlimit:10;stroke-dasharray:none;stroke-opacity:1"
         id="path312" /><path
         d="m 1471.46,1677.84 -74.57,74.57"
         style="fill:none;stroke:#000000;stroke-width:7.9701;stroke-linecap:butt;stroke-linejoin:miter;stroke-miterlimit:10;stroke-dasharray:7.9701, 19.9255;stroke-dashoffset:0;stroke-opacity:1"
         id="path314" /><path
         d="m 1393.23,1726.77 c 4.58,6.41 2.75,24.73 0.92,28.39 3.66,-1.83 21.98,-3.66 28.39,0.91"
         style="fill:none;stroke:#000000;stroke-width:6.37589;stroke-linecap:round;stroke-linejoin:round;stroke-miterlimit:10;stroke-dasharray:none;stroke-opacity:1"
         id="path316" /><path
         d="m 2463.77,1677.89 -74.5,74.52"
         style="fill:none;stroke:#000000;stroke-width:7.9701;stroke-linecap:butt;stroke-linejoin:miter;stroke-miterlimit:10;stroke-dasharray:7.9701, 19.9255;stroke-dashoffset:0;stroke-opacity:1"
         id="path318" /><path
         d="m 2385.6,1726.77 c 4.58,6.41 2.75,24.73 0.92,28.39 3.66,-1.83 21.98,-3.66 28.39,0.91"
         style="fill:none;stroke:#000000;stroke-width:6.37585;stroke-linecap:round;stroke-linejoin:round;stroke-miterlimit:10;stroke-dasharray:none;stroke-opacity:1"
         id="path320" /><path
         d="m 968.457,1174.31 -67.75,67.74"
         style="fill:none;stroke:#000000;stroke-width:7.9701;stroke-linecap:butt;stroke-linejoin:miter;stroke-miterlimit:10;stroke-dasharray:7.9701, 19.9255;stroke-dashoffset:0;stroke-opacity:1"
         id="path322" /><path
         d="m 897.047,1216.41 c 4.578,6.41 2.746,24.72 0.914,28.39 3.664,-1.84 21.98,-3.67 28.391,0.91"
         style="fill:none;stroke:#000000;stroke-width:6.37589;stroke-linecap:round;stroke-linejoin:round;stroke-miterlimit:10;stroke-dasharray:none;stroke-opacity:1"
         id="path324" /><path
         d="m 2122.09,1174.18 67.86,67.87"
         style="fill:none;stroke:#000000;stroke-width:7.9701;stroke-linecap:butt;stroke-linejoin:miter;stroke-miterlimit:10;stroke-dasharray:7.9701, 19.9255;stroke-dashoffset:0;stroke-opacity:1"
         id="path326" /><path
         d="m 2164.31,1245.71 c 6.41,-4.58 24.73,-2.75 28.39,-0.91 -1.83,-3.67 -3.66,-21.98 0.92,-28.39"
         style="fill:none;stroke:#000000;stroke-width:6.37585;stroke-linecap:round;stroke-linejoin:round;stroke-miterlimit:10;stroke-dasharray:none;stroke-opacity:1"
         id="path328" /><path
         d="m 3114.41,1174.12 67.92,67.93"
         style="fill:none;stroke:#000000;stroke-width:7.9701;stroke-linecap:butt;stroke-linejoin:miter;stroke-miterlimit:10;stroke-dasharray:7.9701, 19.9255;stroke-dashoffset:0;stroke-opacity:1"
         id="path330" /><path
         d="m 3156.68,1245.71 c 6.41,-4.58 24.73,-2.75 28.39,-0.91 -1.83,-3.67 -3.66,-21.98 0.92,-28.39"
         style="fill:none;stroke:#000000;stroke-width:6.37589;stroke-linecap:round;stroke-linejoin:round;stroke-miterlimit:10;stroke-dasharray:none;stroke-opacity:1"
         id="path332" /><path
         d="m 728.801,152.219 -85.09,85.09"
         style="fill:none;stroke:#000000;stroke-width:7.9701;stroke-linecap:butt;stroke-linejoin:miter;stroke-miterlimit:10;stroke-dasharray:7.9701, 19.9255;stroke-dashoffset:0;stroke-opacity:1"
         id="path334" /><path
         d="m 640.047,211.668 c 4.578,6.41 2.746,24.727 0.918,28.391 3.66,-1.832 21.976,-3.664 28.387,0.914"
         style="fill:none;stroke:#000000;stroke-width:6.37594;stroke-linecap:round;stroke-linejoin:round;stroke-miterlimit:10;stroke-dasharray:none;stroke-opacity:1"
         id="path336" /><path
         d="m 1154.11,152.227 -85.13,85.105"
         style="fill:none;stroke:#000000;stroke-width:7.9701;stroke-linecap:butt;stroke-linejoin:miter;stroke-miterlimit:10;stroke-dasharray:7.9701, 19.9255;stroke-dashoffset:0;stroke-opacity:1"
         id="path338" /><path
         d="m 1065.32,211.688 c 4.58,6.414 2.75,24.726 0.91,28.39 3.67,-1.832 21.98,-3.66 28.39,0.922"
         style="fill:none;stroke:#000000;stroke-width:6.37585;stroke-linecap:round;stroke-linejoin:round;stroke-miterlimit:10;stroke-dasharray:none;stroke-opacity:1"
         id="path340" /><path
         d="m 1579.43,152.234 -85.18,85.118"
         style="fill:none;stroke:#000000;stroke-width:7.9701;stroke-linecap:butt;stroke-linejoin:miter;stroke-miterlimit:10;stroke-dasharray:7.9701, 19.9255;stroke-dashoffset:0;stroke-opacity:1"
         id="path342" /><path
         d="m 1490.6,211.711 c 4.58,6.41 2.74,24.727 0.91,28.387 3.66,-1.828 21.98,-3.657 28.38,0.925"
         style="fill:none;stroke:#000000;stroke-width:6.3758;stroke-linecap:round;stroke-linejoin:round;stroke-miterlimit:10;stroke-dasharray:none;stroke-opacity:1"
         id="path344" /><path
         d="m 2004.74,152.242 -85.21,85.129"
         style="fill:none;stroke:#000000;stroke-width:7.9701;stroke-linecap:butt;stroke-linejoin:miter;stroke-miterlimit:10;stroke-dasharray:7.9701, 19.9255;stroke-dashoffset:0;stroke-opacity:1"
         id="path346" /><path
         d="m 1915.88,211.727 c 4.57,6.414 2.73,24.73 0.9,28.39 3.67,-1.828 21.98,-3.652 28.39,0.93"
         style="fill:none;stroke:#000000;stroke-width:6.37585;stroke-linecap:round;stroke-linejoin:round;stroke-miterlimit:10;stroke-dasharray:none;stroke-opacity:1"
         id="path348" /><path
         d="m 2430.05,152.25 -85.25,85.141"
         style="fill:none;stroke:#000000;stroke-width:7.9701;stroke-linecap:butt;stroke-linejoin:miter;stroke-miterlimit:10;stroke-dasharray:7.9701, 19.9255;stroke-dashoffset:0;stroke-opacity:1"
         id="path350" /><path
         d="m 2341.15,211.746 c 4.58,6.414 2.73,24.731 0.9,28.391 3.66,-1.828 21.98,-3.649 28.39,0.933"
         style="fill:none;stroke:#000000;stroke-width:6.37581;stroke-linecap:round;stroke-linejoin:round;stroke-miterlimit:10;stroke-dasharray:none;stroke-opacity:1"
         id="path352" /><path
         d="m 2855.37,152.258 -85.3,85.152"
         style="fill:none;stroke:#000000;stroke-width:7.9701;stroke-linecap:butt;stroke-linejoin:miter;stroke-miterlimit:10;stroke-dasharray:7.9701, 19.9255;stroke-dashoffset:0;stroke-opacity:1"
         id="path354" /><path
         d="m 2766.43,211.766 c 4.57,6.414 2.73,24.73 0.89,28.39 3.67,-1.828 21.98,-3.644 28.39,0.938"
         style="fill:none;stroke:#000000;stroke-width:6.37581;stroke-linecap:round;stroke-linejoin:round;stroke-miterlimit:10;stroke-dasharray:none;stroke-opacity:1"
         id="path356" /><path
         d="m 3280.68,152.266 -85.33,85.164"
         style="fill:none;stroke:#000000;stroke-width:7.9701;stroke-linecap:butt;stroke-linejoin:miter;stroke-miterlimit:10;stroke-dasharray:7.9701, 19.9255;stroke-dashoffset:0;stroke-opacity:1"
         id="path358" /><path
         d="m 3191.71,211.785 c 4.57,6.414 2.72,24.727 0.89,28.391 3.66,-1.828 21.98,-3.641 28.38,0.941"
         style="fill:none;stroke:#000000;stroke-width:6.37585;stroke-linecap:round;stroke-linejoin:round;stroke-miterlimit:10;stroke-dasharray:none;stroke-opacity:1"
         id="path360" /><path
         d="m 3706,152.273 -85.38,85.176"
         style="fill:none;stroke:#000000;stroke-width:7.9701;stroke-linecap:butt;stroke-linejoin:miter;stroke-miterlimit:10;stroke-dasharray:7.9701, 19.9255;stroke-dashoffset:0;stroke-opacity:1"
         id="path362" /><path
         d="m 3616.99,211.805 c 4.57,6.414 2.72,24.726 0.88,28.386 3.67,-1.824 21.99,-3.636 28.39,0.954"
         style="fill:none;stroke:#000000;stroke-width:6.37581;stroke-linecap:round;stroke-linejoin:round;stroke-miterlimit:10;stroke-dasharray:none;stroke-opacity:1"
         id="path364" /></g></g></svg>
